<?xml version="1.0" encoding="utf-8"?>
<svg width="25px" height="25px" viewbox="0 0 25 25" version="1.1" xmlns:xlink="http://www.w3.org/1999/xlink" xmlns="http://www.w3.org/2000/svg">
  <g id="call">
    <path d="M24.4663 19.8405L21.7002 17.9962L19.2412 16.3572C18.7666 16.0415 18.1289 16.145 17.7785 16.5947L16.2569 18.5508C15.9301 18.9752 15.3421 19.0972 14.8734 18.8377C13.841 18.2634 12.6201 17.7227 9.92619 15.0253C7.23234 12.328 6.68813 11.1106 6.11382 10.0781C5.85431 9.60941 5.97629 9.02144 6.40076 8.69464L8.35685 7.17305C8.80651 6.82276 8.91006 6.18499 8.59432 5.71038L7.00563 3.3271L5.11104 0.485186C4.78857 0.00146296 4.14306 -0.143761 3.64452 0.155215L1.45953 1.46603C0.869031 1.81394 0.434966 2.37573 0.247247 3.03494C-0.350267 5.21345 -0.470735 10.0192 7.23102 17.7209C14.9328 25.4227 19.738 25.3018 21.9165 24.7042C22.5758 24.5166 23.1376 24.0825 23.4855 23.492L24.7963 21.307C25.0953 20.8084 24.9501 20.163 24.4663 19.8405Z" id="Path" fill="#24303B" stroke="none" />
    <path d="M0.430166 0.86038C4.4673 0.864864 7.73899 4.1365 7.74347 8.17368C7.74347 8.41126 7.93606 8.6039 8.17368 8.6039C8.41126 8.6039 8.6039 8.41131 8.6039 8.17368C8.59893 3.66155 4.94235 0.00497076 0.430214 0C0.192641 0 9.24637e-09 0.192593 9.24637e-09 0.430214C-4.87237e-05 0.667739 0.192544 0.86038 0.430166 0.86038Z" transform="translate(13.766113 3.0112915)" id="Path" fill="#F5A623" stroke="none" />
    <path d="M0.430214 0.860429C3.04245 0.863499 5.15926 2.98036 5.16233 5.59254C5.16233 5.83012 5.35492 6.02276 5.59254 6.02276C5.83012 6.02276 6.02276 5.83017 6.02276 5.59254C6.0192 2.50536 3.51745 0.00355751 0.430214 0C0.192641 0 0 0.192593 0 0.430214C0 0.667836 0.192593 0.860429 0.430214 0.860429Z" transform="translate(13.766113 5.592407)" id="Path" fill="#F5A623" stroke="none" />
    <path d="M0.430166 0.86038C1.61754 0.861793 2.57973 1.82398 2.58114 3.01135C2.58114 3.24893 2.77373 3.44157 3.01135 3.44157C3.24893 3.44157 3.44157 3.24898 3.44157 3.01135C3.43967 1.34903 2.09254 0.00190058 0.430214 0C0.192641 0 9.24637e-09 0.192593 9.24637e-09 0.430214C-4.87237e-05 0.667787 0.192544 0.86038 0.430166 0.86038Z" transform="translate(13.766113 8.173645)" id="Path" fill="#F5A623" stroke="none" />
  </g>
</svg>