<?xml version="1.0" encoding="utf-8"?>
<svg width="51px" height="51px" viewbox="0 0 51 51" version="1.1" xmlns:xlink="http://www.w3.org/1999/xlink" xmlns="http://www.w3.org/2000/svg">
  <g id="chip-(3)">
    <path d="M21.7569 0L3.04128 0C1.36209 0.00182769 0.00182769 1.36255 0 3.04128L0 21.7569C0.00182769 23.4356 1.36209 24.7963 3.04128 24.7982L21.7569 24.7982C23.4356 24.7963 24.7963 23.4356 24.7982 21.7569L24.7982 3.04128C24.7963 1.36255 23.4356 0.00182769 21.7569 0ZM23.3945 21.7569C23.3931 22.6607 22.6607 23.3936 21.7569 23.3945L3.04128 23.3945C2.13703 23.3936 1.40458 22.6607 1.40367 21.7569L1.40367 3.04128C1.40458 2.13703 2.13703 1.40458 3.04128 1.40367L21.7569 1.40367C22.6607 1.40458 23.3936 2.13703 23.3945 3.04128L23.3945 21.7569Z" transform="translate(13.080383 13.100952)" id="Shape" fill="#2ECE59" stroke="none" />
    <path d="M27.6055 0L4.21101 0C1.88618 0.0027416 0.00228459 1.88618 0 4.21101L0 27.6055C0.00228459 29.9299 1.88618 31.8138 4.21101 31.8165L27.6055 31.8165C29.9299 31.8138 31.8138 29.9299 31.8165 27.6055L31.8165 4.21101C31.8138 1.88618 29.9299 0.0027416 27.6055 0ZM30.4128 27.6055C30.411 29.1554 29.1549 30.411 27.6055 30.4128L4.21101 30.4128C2.66112 30.411 1.4055 29.1554 1.40367 27.6055L1.40367 4.21101C1.40504 2.66112 2.66112 1.4055 4.21101 1.40367L27.6055 1.40367C29.1549 1.4055 30.411 2.66112 30.4128 4.21101L30.4128 27.6055Z" transform="translate(9.571167 9.591797)" id="Shape" fill="#2ECE59" stroke="none" />
    <path d="M0.701835 0C0.313907 0 0 0.314364 0 0.701835L0 6.55046C0 6.93839 0.313907 7.25229 0.701835 7.25229C1.08931 7.25229 1.40367 6.93839 1.40367 6.55046L1.40367 0.701835C1.40367 0.314364 1.08931 0 0.701835 0Z" transform="translate(27.306213 43.706177)" id="Path" fill="#2ECE59" stroke="none" />
    <path d="M0.701835 0C0.313907 0 0 0.314364 0 0.701835L0 6.55046C0 6.93839 0.313907 7.25229 0.701835 7.25229C1.08931 7.25229 1.40367 6.93839 1.40367 6.55046L1.40367 0.701835C1.40367 0.314364 1.08931 0 0.701835 0Z" transform="translate(22.248962 43.706177)" id="Path" fill="#2ECE59" stroke="none" />
    <path d="M0.701835 0C0.314364 0 0 0.314364 0 0.701835L0 6.55046C0 6.93839 0.314364 7.25229 0.701835 7.25229C1.08931 7.25229 1.40367 6.93839 1.40367 6.55046L1.40367 0.701835C1.40367 0.314364 1.08931 0 0.701835 0Z" transform="translate(17.191772 43.706177)" id="Path" fill="#2ECE59" stroke="none" />
    <path d="M0.701835 0C0.313907 0 0 0.314364 0 0.701835L0 6.55046C0 6.93839 0.313907 7.25229 0.701835 7.25229C1.08931 7.25229 1.40367 6.93839 1.40367 6.55046L1.40367 0.701835C1.40367 0.314364 1.08931 0 0.701835 0Z" transform="translate(32.363464 43.706177)" id="Path" fill="#2ECE59" stroke="none" />
    <path d="M1.40367 6.55046L1.40367 0.701835C1.40367 0.314364 1.08931 0 0.701835 0C0.313907 0 0 0.314364 0 0.701835L0 6.55046C0 6.93793 0.313907 7.25229 0.701835 7.25229C1.08931 7.25229 1.40367 6.93793 1.40367 6.55046Z" transform="translate(22.248962 0)" id="Path" fill="#2ECE59" stroke="none" />
    <path d="M1.40367 6.55046L1.40367 0.701835C1.40367 0.314364 1.08931 0 0.701835 0C0.313907 0 0 0.314364 0 0.701835L0 6.55046C0 6.93793 0.313907 7.25229 0.701835 7.25229C1.08931 7.25229 1.40367 6.93793 1.40367 6.55046Z" transform="translate(27.306213 0)" id="Path" fill="#2ECE59" stroke="none" />
    <path d="M1.40367 6.55046L1.40367 0.701835C1.40367 0.314364 1.08931 0 0.701835 0C0.313907 0 0 0.314364 0 0.701835L0 6.55046C0 6.93793 0.313907 7.25229 0.701835 7.25229C1.08931 7.25229 1.40367 6.93793 1.40367 6.55046Z" transform="translate(32.363464 0)" id="Path" fill="#2ECE59" stroke="none" />
    <path d="M1.40367 6.55046L1.40367 0.701835C1.40367 0.314364 1.08931 0 0.701835 0C0.314364 0 0 0.314364 0 0.701835L0 6.55046C0 6.93793 0.314364 7.25229 0.701835 7.25229C1.08931 7.25229 1.40367 6.93793 1.40367 6.55046Z" transform="translate(17.191772 0)" id="Path" fill="#2ECE59" stroke="none" />
    <path d="M6.55046 0L0.701835 0C0.314364 0 0 0.313907 0 0.701835C0 1.08931 0.314364 1.40367 0.701835 1.40367L6.55046 1.40367C6.93839 1.40367 7.25229 1.08931 7.25229 0.701835C7.25229 0.313907 6.93839 0 6.55046 0Z" transform="translate(43.706177 22.249023)" id="Path" fill="#2ECE59" stroke="none" />
    <path d="M6.55046 0L0.701835 0C0.314364 0 0 0.313907 0 0.701835C0 1.08931 0.314364 1.40367 0.701835 1.40367L6.55046 1.40367C6.93839 1.40367 7.25229 1.08931 7.25229 0.701835C7.25229 0.313907 6.93839 0 6.55046 0Z" transform="translate(43.706177 27.306274)" id="Path" fill="#2ECE59" stroke="none" />
    <path d="M6.55046 0L0.701835 0C0.314364 0 0 0.313907 0 0.701835C0 1.08931 0.314364 1.40367 0.701835 1.40367L6.55046 1.40367C6.93839 1.40367 7.25229 1.08931 7.25229 0.701835C7.25229 0.313907 6.93839 0 6.55046 0Z" transform="translate(43.706177 32.363403)" id="Path" fill="#2ECE59" stroke="none" />
    <path d="M6.55046 0L0.701835 0C0.314364 0 0 0.314364 0 0.701835C0 1.08931 0.314364 1.40367 0.701835 1.40367L6.55046 1.40367C6.93839 1.40367 7.25229 1.08931 7.25229 0.701835C7.25229 0.314364 6.93839 0 6.55046 0Z" transform="translate(43.706177 17.191772)" id="Path" fill="#2ECE59" stroke="none" />
    <path d="M6.55046 0L0.701835 0C0.314364 0 0 0.313907 0 0.701835C0 1.08931 0.314364 1.40367 0.701835 1.40367L6.55046 1.40367C6.93793 1.40367 7.25229 1.08931 7.25229 0.701835C7.25229 0.313907 6.93793 0 6.55046 0Z" transform="translate(0 27.306274)" id="Path" fill="#2ECE59" stroke="none" />
    <path d="M6.55046 0L0.701835 0C0.314364 0 0 0.313907 0 0.701835C0 1.08931 0.314364 1.40367 0.701835 1.40367L6.55046 1.40367C6.93793 1.40367 7.25229 1.08931 7.25229 0.701835C7.25229 0.313907 6.93793 0 6.55046 0Z" transform="translate(0 22.249023)" id="Path" fill="#2ECE59" stroke="none" />
    <path d="M6.55046 0L0.701835 0C0.314364 0 0 0.314364 0 0.701835C0 1.08931 0.314364 1.40367 0.701835 1.40367L6.55046 1.40367C6.93793 1.40367 7.25229 1.08931 7.25229 0.701835C7.25229 0.314364 6.93793 0 6.55046 0Z" transform="translate(0 17.191772)" id="Path" fill="#2ECE59" stroke="none" />
    <path d="M6.55046 0L0.701835 0C0.314364 0 0 0.313907 0 0.701835C0 1.08931 0.314364 1.40367 0.701835 1.40367L6.55046 1.40367C6.93793 1.40367 7.25229 1.08931 7.25229 0.701835C7.25229 0.313907 6.93793 0 6.55046 0Z" transform="translate(0 32.363403)" id="Path" fill="#2ECE59" stroke="none" />
    <path d="M4.31104 0.463321C4.20777 0.15444 3.82213 0 3.43603 0C3.04993 0 2.67662 0.15444 2.57381 0.463321L0.013214 8.80081C0.00270472 8.83873 -0.00140757 8.87803 0.000420128 8.91687C0.000420128 9.25134 0.476535 9.483 0.849841 9.483C1.0815 9.483 1.26153 9.40578 1.32596 9.1997L1.85325 7.37292L5.03161 7.37292L5.5589 9.1997C5.62332 9.40578 5.80335 9.483 6.02222 9.483C6.40832 9.483 6.88443 9.23854 6.88443 8.91687C6.88215 8.87711 6.87347 8.83782 6.85839 8.80081L4.31104 0.463321ZM2.14933 6.27905L3.43603 1.86562L4.72273 6.27905L2.14933 6.27905Z" transform="translate(20.512268 20.039795)" id="Shape" fill="#2ECE59" stroke="none" />
    <path d="M0.682187 0C0.347719 0 0 0.128396 0 0.437276L0 8.95525C0 9.25134 0.347719 9.40578 0.682187 9.40578C1.02945 9.40578 1.36392 9.25134 1.36392 8.95525L1.36392 0.437733C1.36392 0.128396 1.02945 0 0.682187 0Z" transform="translate(28.412903 20.116943)" id="Path" fill="#2ECE59" stroke="none" />
  </g>
</svg>