<?xml version="1.0" encoding="utf-8"?>
<svg width="51px" height="51px" viewbox="0 0 51 51" version="1.1" xmlns:xlink="http://www.w3.org/1999/xlink" xmlns="http://www.w3.org/2000/svg">
  <g id="cloud-network">
    <path d="M43.5968 37.8387C47.6784 37.8387 51 34.5171 51 30.4355C51 26.3538 47.6784 23.0323 43.5968 23.0323C43.2817 23.0323 42.9724 23.0586 42.6673 23.0972C41.8842 16.5339 36.3285 11.5161 29.6129 11.5161C28.9828 11.5161 28.3683 11.5762 27.7613 11.6617C26.6459 4.95852 20.8746 0 13.9839 0C6.273 0 0 6.273 0 13.9839C0 17.7077 1.47242 21.2234 4.06931 23.8343C1.65915 25.0566 0 27.5532 0 30.4355C0 34.5171 3.32158 37.8387 7.40323 37.8387L13.1613 37.8387L13.1613 46.8871C13.1613 47.3403 12.792 47.7097 12.3387 47.7097L8.07445 47.7097C7.7339 46.7547 6.82906 46.0645 5.75806 46.0645C4.39752 46.0645 3.29032 47.1717 3.29032 48.5323C3.29032 49.8928 4.39752 51 5.75806 51C6.82906 51 7.7339 50.3099 8.07445 49.3548L12.3387 49.3548C13.6993 49.3548 14.8065 48.2476 14.8065 46.8871L14.8065 37.8387L18.0968 37.8387L18.0968 42.103C17.1418 42.4435 16.4516 43.3484 16.4516 44.4194C16.4516 45.7799 17.5588 46.8871 18.9194 46.8871C20.2799 46.8871 21.3871 45.7799 21.3871 44.4194C21.3871 43.3484 20.697 42.4435 19.7419 42.103L19.7419 37.8387L24.6774 37.8387L24.6774 46.2159C23.7224 46.5564 23.0323 47.4613 23.0323 48.5323C23.0323 49.8928 24.1395 51 25.5 51C26.8605 51 27.9677 49.8928 27.9677 48.5323C27.9677 47.4613 27.2776 46.5564 26.3226 46.2159L26.3226 37.8387L31.2581 37.8387L31.2581 42.103C30.303 42.4435 29.6129 43.3484 29.6129 44.4194C29.6129 45.7799 30.7201 46.8871 32.0806 46.8871C33.4412 46.8871 34.5484 45.7799 34.5484 44.4194C34.5484 43.3484 33.8582 42.4435 32.9032 42.103L32.9032 37.8387L36.1935 37.8387L36.1935 46.8871C36.1935 48.2476 37.3007 49.3548 38.6613 49.3548L42.9255 49.3548C43.2661 50.3099 44.1709 51 45.2419 51C46.6025 51 47.7097 49.8928 47.7097 48.5323C47.7097 47.1717 46.6025 46.0645 45.2419 46.0645C44.1709 46.0645 43.2661 46.7547 42.9255 47.7097L38.6613 47.7097C38.208 47.7097 37.8387 47.3403 37.8387 46.8871L37.8387 37.8387L43.5968 37.8387ZM5.75806 49.3548C5.30482 49.3548 4.93548 48.9855 4.93548 48.5323C4.93548 48.079 5.30482 47.7097 5.75806 47.7097C6.21131 47.7097 6.58065 48.079 6.58065 48.5323C6.58065 48.9855 6.21131 49.3548 5.75806 49.3548ZM18.9194 45.2419C18.4661 45.2419 18.0968 44.8726 18.0968 44.4194C18.0968 43.9661 18.4661 43.5968 18.9194 43.5968C19.3726 43.5968 19.7419 43.9661 19.7419 44.4194C19.7419 44.8726 19.3726 45.2419 18.9194 45.2419ZM25.5 49.3548C25.0468 49.3548 24.6774 48.9855 24.6774 48.5323C24.6774 48.079 25.0468 47.7097 25.5 47.7097C25.9532 47.7097 26.3226 48.079 26.3226 48.5323C26.3226 48.9855 25.9532 49.3548 25.5 49.3548ZM32.0806 45.2419C31.6274 45.2419 31.2581 44.8726 31.2581 44.4194C31.2581 43.9661 31.6274 43.5968 32.0806 43.5968C32.5339 43.5968 32.9032 43.9661 32.9032 44.4194C32.9032 44.8726 32.5339 45.2419 32.0806 45.2419ZM45.2419 47.7097C45.6952 47.7097 46.0645 48.079 46.0645 48.5323C46.0645 48.9855 45.6952 49.3548 45.2419 49.3548C44.7887 49.3548 44.4194 48.9855 44.4194 48.5323C44.4194 48.079 44.7887 47.7097 45.2419 47.7097ZM17.2462 20.2174C16.4738 19.9089 15.6471 19.7419 14.8065 19.7419L8.92747 19.7419C8.53756 18.2103 8.30889 16.5339 8.25295 14.8065L19.723 14.8065C19.709 15.2416 19.686 15.6735 19.6498 16.102C18.6134 17.3046 17.7965 18.6964 17.2462 20.2174ZM1.6904 14.8065L6.60779 14.8065C6.65961 16.5199 6.87102 18.1914 7.23377 19.7419L3.08797 19.7419C2.28595 18.2259 1.80639 16.552 1.6904 14.8065ZM13.9839 1.64516C15.8199 1.64516 17.4831 3.60866 18.5459 6.58065L9.42184 6.58065C10.4846 3.60866 12.1479 1.64516 13.9839 1.64516ZM19.0501 8.22581C19.4302 9.72373 19.6638 11.3993 19.7214 13.1613L8.24555 13.1613C8.30313 11.3993 8.53674 9.72373 8.91677 8.22581L19.0501 8.22581ZM6.60203 13.1613L1.68711 13.1613C1.80474 11.3886 2.28924 9.71632 3.07974 8.22581L7.22061 8.22581C6.8669 9.73936 6.65385 11.4018 6.60203 13.1613L6.60203 13.1613ZM20.7471 8.22581L24.9053 8.22581C25.5115 9.37989 25.9319 10.6483 26.149 11.994C24.3838 12.4769 22.7641 13.3102 21.3764 14.4272C21.3797 14.2792 21.3871 14.1319 21.3871 13.9839C21.3871 11.9175 21.156 9.97461 20.7471 8.22581L20.7471 8.22581ZM23.8622 6.58065L20.2881 6.58065C19.7444 4.90834 19.0255 3.47211 18.1659 2.3789C20.451 3.19737 22.4277 4.66486 23.8622 6.58065L23.8622 6.58065ZM9.79035 2.39453C8.93652 3.4861 8.22087 4.91656 7.67961 6.58065L4.13676 6.58065C5.56476 4.68542 7.52085 3.21876 9.79035 2.39453ZM4.12195 21.3871L10.4682 21.3871C9.87673 21.9078 9.3766 22.528 9.00232 23.228C8.47752 23.112 7.94613 23.0323 7.40323 23.0323C6.85703 23.0323 6.32647 23.0956 5.814 23.2083C5.18637 22.6522 4.61715 22.0452 4.12195 21.3871L4.12195 21.3871ZM1.64516 30.4355C1.64516 27.2603 4.22806 24.6774 7.40323 24.6774C7.74624 24.6774 8.08432 24.7144 8.41747 24.7737C8.29655 25.2713 8.22581 25.7879 8.22581 26.3226L9.87097 26.3226C9.87097 23.6007 12.0845 21.3871 14.8065 21.3871C15.4892 21.3871 16.1596 21.531 16.7782 21.8009C16.5701 22.7279 16.4516 23.6887 16.4516 24.6774L18.0968 24.6774C18.0968 18.3271 23.2626 13.1613 29.6129 13.1613C35.556 13.1613 40.4586 17.6526 41.055 23.4913C38.2229 24.5318 36.1935 27.248 36.1935 30.4355L37.8387 30.4355C37.8387 27.2603 40.4216 24.6774 43.5968 24.6774C46.7719 24.6774 49.3548 27.2603 49.3548 30.4355C49.3548 33.6106 46.7719 36.1936 43.5968 36.1936L7.40323 36.1936C4.22806 36.1936 1.64516 33.6106 1.64516 30.4355Z" id="Shape" fill="#D92542" stroke="none" />
    <path d="M2.46774 0C1.10719 0 0 1.10719 0 2.46774C0 3.82829 1.10719 4.93548 2.46774 4.93548C3.82829 4.93548 4.93548 3.82829 4.93548 2.46774C4.93548 1.10719 3.82829 0 2.46774 0ZM2.46774 3.29032C2.0145 3.29032 1.64516 2.92098 1.64516 2.46774C1.64516 2.0145 2.0145 1.64516 2.46774 1.64516C2.92098 1.64516 3.29032 2.0145 3.29032 2.46774C3.29032 2.92098 2.92098 3.29032 2.46774 3.29032Z" transform="translate(27.967773 27.967773)" id="Shape" fill="#D92542" stroke="none" />
    <path d="M2.46774 0C1.10719 0 0 1.10719 0 2.46774C0 3.82829 1.10719 4.93548 2.46774 4.93548C3.82829 4.93548 4.93548 3.82829 4.93548 2.46774C4.93548 1.10719 3.82829 0 2.46774 0ZM2.46774 3.29032C2.0145 3.29032 1.64516 2.92098 1.64516 2.46774C1.64516 2.0145 2.0145 1.64516 2.46774 1.64516C2.92098 1.64516 3.29032 2.0145 3.29032 2.46774C3.29032 2.92098 2.92098 3.29032 2.46774 3.29032Z" transform="translate(21.387085 27.967773)" id="Shape" fill="#D92542" stroke="none" />
    <path d="M2.46774 0C1.10719 0 0 1.10719 0 2.46774C0 3.82829 1.10719 4.93548 2.46774 4.93548C3.82829 4.93548 4.93548 3.82829 4.93548 2.46774C4.93548 1.10719 3.82829 0 2.46774 0ZM2.46774 3.29032C2.0145 3.29032 1.64516 2.92098 1.64516 2.46774C1.64516 2.0145 2.0145 1.64516 2.46774 1.64516C2.92098 1.64516 3.29032 2.0145 3.29032 2.46774C3.29032 2.92098 2.92098 3.29032 2.46774 3.29032Z" transform="translate(14.8063965 27.967773)" id="Shape" fill="#D92542" stroke="none" />
    <path d="M3.29032 4.93548L4.93548 4.93548C4.93548 2.21356 2.72192 0 0 0L0 1.64516C1.81461 1.64516 3.29032 3.12087 3.29032 4.93548Z" transform="translate(37.838745 10.6936035)" id="Path" fill="#D92542" stroke="none" />
    <path d="M6.58065 8.22581L8.22581 8.22581C8.22581 3.6901 4.53571 0 0 0L0 1.64516C3.6284 1.64516 6.58065 4.5974 6.58065 8.22581Z" transform="translate(37.838745 7.4031982)" id="Path" fill="#D92542" stroke="none" />
    <path d="M9.87097 11.5161L11.5161 11.5161C11.5161 5.16581 6.35032 0 0 0L0 1.64516C5.44302 1.64516 9.87097 6.07311 9.87097 11.5161Z" transform="translate(37.838745 4.112915)" id="Path" fill="#D92542" stroke="none" />
  </g>
</svg>