<?xml version="1.0" encoding="utf-8"?>
<svg width="9px" height="30px" viewbox="0 0 9 30" version="1.1" xmlns:xlink="http://www.w3.org/1999/xlink" xmlns="http://www.w3.org/2000/svg">
  <g id="f" fill="#FFFFFF">
    <path d="M2.16 23.4023L2.16 14.2583L0.576 14.2583L0.576 11.6423L2.16 11.5223L2.16 10.8743Q2.16 9.93834 2.388 9.09834Q2.616 8.25834 3.144 7.63434Q3.672 7.01035 4.512 6.65034Q5.352 6.29034 6.552 6.29034Q7.296 6.29034 7.908 6.43434Q8.52 6.57834 8.928 6.72234L8.28 9.31434Q7.608 9.07434 7.056 9.07434Q6.408 9.07434 6.048 9.47034Q5.688 9.86634 5.688 10.7783L5.688 11.4983L7.824 11.4983L7.824 14.2583L5.688 14.2583L5.688 23.4023L2.16 23.4023Z" />
  </g>
</svg>