<?xml version="1.0" encoding="utf-8"?>
<svg width="66px" height="66px" viewbox="0 0 66 66" version="1.1" xmlns:xlink="http://www.w3.org/1999/xlink" xmlns="http://www.w3.org/2000/svg">
  <g id="Group-19" transform="translate(0.5 0.5)">
    <path d="M32.5 65C50.4493 65 65 50.4493 65 32.5C65 14.5507 50.4493 0 32.5 0C14.5507 0 0 14.5507 0 32.5C0 50.4493 14.5507 65 32.5 65Z" id="Oval-9" fill="#34D589" fill-opacity="0.46666667" fill-rule="evenodd" stroke="none" />
    <g id="Group-17" transform="translate(12.000209 13.053056)">
      <path d="M6.61209 0.545809C6.61209 0.244367 6.36772 0 6.06628 0C2.71728 0.00464042 0.00377961 2.71884 0 6.06784C0 6.36928 0.244367 6.61365 0.545809 6.61365C0.847251 6.61365 1.09162 6.36928 1.09162 6.06784C1.09471 3.32132 3.32007 1.0954 6.06659 1.09162C6.36791 1.09145 6.61209 0.847129 6.61209 0.545809L6.61209 0.545809Z" transform="translate(2.931565 14.282071)" id="Path" fill="#67A688" stroke="none" />
      <path d="M3.16756 0C1.41902 0.00206237 0.00206237 1.41902 0 3.16756C0 3.46901 0.244367 3.71337 0.545809 3.71337C0.847251 3.71337 1.09162 3.46901 1.09162 3.16756C1.09162 2.02096 2.02112 1.09146 3.16772 1.09146C4.31432 1.09146 5.24382 2.02096 5.24382 3.16756C5.24382 3.46901 5.48819 3.71337 5.78963 3.71337C6.09107 3.71337 6.33544 3.46901 6.33544 3.16756C6.33338 1.4189 4.91623 0.00189053 3.16756 0Z" transform="translate(11.120571 3.1662815)" id="Path" fill="#67A688" stroke="none" />
      <path d="M0.545809 1.09162L0.779727 1.09162C2.26201 1.09317 3.46325 2.29441 3.4648 3.77669L3.4648 5.54105C3.46325 7.02333 2.26201 8.22457 0.779727 8.22612C0.478285 8.22612 0.233918 8.47049 0.233918 8.77193C0.233918 9.07337 0.478285 9.31774 0.779727 9.31774C2.86454 9.31533 4.55401 7.62586 4.55641 5.54105L4.55641 3.77669C4.55401 1.69188 2.86454 0.00240621 0.779727 0L0.545809 0C0.244367 0 0 0.244367 0 0.545809C0 0.847251 0.244367 1.09162 0.545809 1.09162L0.545809 1.09162Z" transform="translate(10.64369 10.054079)" id="Path" fill="#67A688" stroke="none" />
      <path d="M7.36842 4.79532C7.66986 4.79532 7.91423 4.55095 7.91423 4.24951C7.91423 3.94807 7.66986 3.7037 7.36842 3.7037L4.24951 3.7037C2.50624 3.70181 1.09351 2.28908 1.09162 0.545809C1.09162 0.244367 0.847251 0 0.545809 0C0.244367 0 0 0.244367 0 0.545809C0.00274986 2.89161 1.90371 4.79257 4.24951 4.79532L7.36842 4.79532Z" transform="translate(7.29024 20.073572)" id="Path" fill="#67A688" stroke="none" />
      <path d="M4.99025 4.44444C2.83809 4.44204 1.09402 2.69797 1.09162 0.545809C1.09162 0.244367 0.847251 0 0.545809 0C0.244367 0 0 0.244367 0 0.545809C0.00309389 3.30057 2.2355 5.53297 4.99025 5.53606C5.2917 5.53606 5.53606 5.2917 5.53606 4.99025C5.53606 4.68881 5.2917 4.44444 4.99025 4.44444L4.99025 4.44444Z" transform="translate(11.656712 26.896185)" id="Path" fill="#67A688" stroke="none" />
      <path d="M2.51329 2.53108C1.60245 2.39369 0.974643 1.54502 1.10978 0.633848C1.14151 0.439715 1.06632 0.243527 0.912974 0.120323C0.759627 -0.00288064 0.551848 -0.0340385 0.369108 0.0387668C0.186368 0.111572 0.0569406 0.277076 0.0303294 0.471977C-0.193432 1.9793 0.84497 3.38336 2.35173 3.61085C2.37869 3.61476 2.4059 3.61674 2.43314 3.61677C2.71897 3.61674 2.95636 3.3962 2.97741 3.11115C2.99845 2.8261 2.79602 2.57309 2.51329 2.53108L2.51329 2.53108Z" transform="translate(6.389423 27.67333)" id="Path" fill="#67A688" stroke="none" />
      <path d="M3.4308 2.88499C2.13948 2.88362 1.09299 1.83713 1.09162 0.545809C1.09162 0.244367 0.847251 0 0.545809 0C0.244367 0 0 0.244367 0 0.545809C0.00206272 2.43973 1.53688 3.97455 3.4308 3.97661C3.73224 3.97661 3.97661 3.73224 3.97661 3.4308C3.97661 3.12936 3.73224 2.88499 3.4308 2.88499Z" transform="translate(10.993943 33.083473)" id="Path" fill="#67A688" stroke="none" />
      <path d="M37.7579 21.9839C37.3738 21.9843 36.9968 22.0877 36.6663 22.2833L29.5864 15.2034C29.4841 15.101 29.3453 15.0435 29.2006 15.0434L20.5066 15.0434L20.5066 11.6656L35.6667 11.6656C35.9413 12.7191 36.9559 13.4046 38.0358 13.2661C39.1156 13.1277 39.9245 12.2085 39.9245 11.1198C39.9245 10.0311 39.1156 9.1119 38.0358 8.97347C36.9559 8.83504 35.9413 9.52049 35.6667 10.574L20.5066 10.574L20.5066 8.13096L29.2006 8.13096C29.3453 8.13089 29.4841 8.07334 29.5864 7.97096L31.9256 5.63178C32.8932 6.13544 34.0843 5.84171 34.7068 4.94594C35.3293 4.05017 35.1893 2.83137 34.3799 2.10009C33.5705 1.36881 32.3438 1.35283 31.5156 2.06278C30.6874 2.77272 30.5157 3.98747 31.1146 4.89915L28.9744 7.03934L20.5066 7.03934L20.5066 6.21408C20.5042 2.8752 17.8655 0.134133 14.5291 0.00475079C11.1927 -0.124632 8.34965 2.40385 8.08868 5.73252C5.44711 6.12068 3.48932 8.38656 3.4886 11.0565C3.48801 11.7125 3.60898 12.363 3.84541 12.9749C1.47177 14.6329 0.0409829 17.3318 0.000866153 20.2269C-0.0392506 23.122 1.3162 25.8595 3.64299 27.5827C3.28272 29.0541 3.55985 30.6093 4.40622 31.8657C5.25259 33.1221 6.58968 33.9633 8.08868 34.1823C8.34966 37.5111 11.1929 40.0396 14.5294 39.91C17.8659 39.7805 20.5045 37.0391 20.5066 33.7001L20.5066 33.6028L26.4793 33.6028L28.8054 36.5589C28.169 37.4487 28.2931 38.6729 29.0953 39.4169C29.8974 40.1609 31.1274 40.1927 31.967 39.4913C32.8065 38.7898 32.9939 37.5737 32.4044 36.6521C31.8149 35.7305 30.6323 35.3906 29.6435 35.8587L27.1733 32.7195C27.0698 32.588 26.9118 32.5112 26.7444 32.5112L20.5066 32.5112L20.5066 29.2363L26.271 29.2363C26.5456 30.2898 27.5602 30.9753 28.64 30.8368C29.7199 30.6984 30.5288 29.7792 30.5288 28.6905C30.5288 27.6018 29.7199 26.6826 28.64 26.5442C27.5602 26.4057 26.5456 27.0912 26.271 28.1447L20.5066 28.1447L20.5066 24.8698L29.7015 24.8698C29.9761 25.9233 30.9907 26.6088 32.0705 26.4704C33.1504 26.3319 33.9593 25.4127 33.9593 24.324C33.9593 23.2353 33.1504 22.3161 32.0705 22.1777C30.9907 22.0393 29.9761 22.7247 29.7015 23.7782L20.5066 23.7782L20.5066 20.5034L23.7874 20.5034C24.0879 21.5499 25.1191 22.2103 26.1954 22.0453C27.2717 21.8804 28.0579 20.9415 28.0311 19.8529C28.0044 18.7644 27.1731 17.8653 26.09 17.7534C25.0069 17.6415 24.0093 18.3517 23.7606 19.4117L20.5066 19.4117L20.5066 16.1369L28.9744 16.1369L35.8937 23.0559C35.3995 23.9017 35.5358 24.9741 36.2259 25.6694C36.916 26.3647 37.9874 26.509 38.8369 26.021C39.6864 25.5331 40.1015 24.5348 39.8486 23.5884C39.5956 22.642 38.7379 21.984 37.7582 21.9848L37.7579 21.9839ZM37.7579 10.0475C38.1916 10.0474 38.5827 10.3086 38.7488 10.7092C38.9149 11.1099 38.8232 11.5712 38.5166 11.8779C38.2099 12.1847 37.7487 12.2764 37.348 12.1105C36.9472 11.9445 36.686 11.5535 36.686 11.1198C36.6865 10.5279 37.166 10.0482 37.7579 10.0475L37.7579 10.0475ZM32.9236 2.63981C33.5156 2.63981 33.9956 3.11975 33.9956 3.71178C33.9956 4.30381 33.5156 4.78375 32.9236 4.78375C32.3316 4.78375 31.8516 4.30381 31.8516 3.71178C31.8523 3.12003 32.3319 2.6405 32.9236 2.63981L32.9236 2.63981ZM31.6371 37.8124C31.6371 38.4044 31.1571 38.8843 30.5651 38.8843C29.9731 38.8843 29.4931 38.4044 29.4931 37.8124C29.4931 37.2203 29.9731 36.7404 30.5651 36.7404C31.1568 36.7411 31.6364 37.2206 31.6371 37.8124L31.6371 37.8124ZM28.3622 27.6176C28.796 27.6175 29.1871 27.8787 29.3531 28.2794C29.5192 28.6801 29.4274 29.1414 29.1207 29.4481C28.814 29.7548 28.3527 29.8465 27.952 29.6805C27.5513 29.5144 27.2901 29.1233 27.2902 28.6896C27.2909 28.0978 27.7705 27.6183 28.3622 27.6176ZM31.793 23.2511C32.2268 23.251 32.6179 23.5122 32.7839 23.9129C32.95 24.3136 32.8582 24.7749 32.5515 25.0816C32.2448 25.3883 31.7835 25.48 31.3828 25.314C30.9821 25.1479 30.7209 24.7568 30.721 24.3231C30.7217 23.7313 31.2013 23.2518 31.793 23.2511ZM25.8652 18.8319C26.2989 18.8318 26.69 19.093 26.8561 19.4937C27.0222 19.8943 26.9305 20.3556 26.6238 20.6623C26.3172 20.9691 25.856 21.0609 25.4552 20.8949C25.0545 20.729 24.7932 20.3379 24.7932 19.9042C24.7938 19.3123 25.2733 18.8326 25.8652 18.8319L25.8652 18.8319ZM19.415 33.6995C19.3966 36.5155 17.1104 38.7895 14.2943 38.7929C11.4783 38.7962 9.18663 36.5276 9.16158 33.7116C9.16158 33.7029 9.16158 33.6935 9.16158 33.6864C9.16166 33.3961 8.9346 33.1566 8.64478 33.1412C7.31173 33.0724 6.08681 32.3865 5.33146 31.2859C4.57612 30.1854 4.37656 28.7958 4.79168 27.5271C4.86715 27.2956 4.77996 27.042 4.57804 26.9059C2.35578 25.408 1.04349 22.8865 1.09173 20.207C1.13998 17.5275 2.5422 15.0549 4.81695 13.638C5.0542 13.49 5.1412 13.1866 5.01843 12.9353C4.3841 11.6427 4.44185 10.1179 5.17211 8.87692C5.90238 7.63599 7.2074 6.84513 8.6454 6.77205C8.93522 6.75663 9.16229 6.51709 9.16221 6.22687C9.16221 6.22001 9.16221 6.21096 9.16221 6.20192C9.18719 3.38597 11.4787 1.11727 14.2948 1.12053C17.1108 1.12378 19.3972 3.39777 19.4156 6.21377L19.415 33.6995ZM37.7579 25.2201C37.3242 25.2201 36.9332 24.9588 36.7672 24.5581C36.6013 24.1574 36.6931 23.6961 36.9998 23.3895C37.3065 23.0828 37.7678 22.9912 38.1685 23.1572C38.5692 23.3233 38.8303 23.7144 38.8302 24.1481C38.8293 24.7399 38.3497 25.2193 37.7579 25.2198L37.7579 25.2201Z" transform="matrix(1 0 0 1 2.1316282E-14 1.1723955E-13)" id="Shape" fill="#67A688" stroke="none" />
      <path d="M2.16427 4.52672e-08C1.28903 -0.000126107 0.499898 0.527011 0.16487 1.33559C-0.170159 2.14418 0.014898 3.07496 0.633744 3.6939C1.25259 4.31283 2.18335 4.49802 2.99198 4.16311C3.80061 3.8282 4.32786 3.03914 4.32786 2.1639C4.32649 0.969502 3.35867 0.00154685 2.16427 4.52672e-08L2.16427 4.52672e-08ZM2.16427 3.23587C1.73052 3.23599 1.33941 2.97479 1.17336 2.57407C1.00731 2.17336 1.09903 1.71208 1.40575 1.40537C1.71246 1.09866 2.17374 1.00694 2.57445 1.17299C2.97516 1.33904 3.23637 1.73014 3.23624 2.1639C3.23556 2.75565 2.75602 3.23518 2.16427 3.23587L2.16427 3.23587Z" transform="translate(33.97587 14.10866)" id="Shape" fill="#67A688" stroke="none" />
      <path d="M2.16427 4.52672e-08C1.28903 -0.000126107 0.499898 0.527011 0.16487 1.33559C-0.170159 2.14418 0.014898 3.07496 0.633744 3.6939C1.25259 4.31283 2.18335 4.49802 2.99198 4.16311C3.80061 3.8282 4.32786 3.03914 4.32786 2.1639C4.32649 0.969502 3.35867 0.00154685 2.16427 4.52672e-08L2.16427 4.52672e-08ZM2.16427 3.23587C1.73055 3.23599 1.33946 2.97482 1.17339 2.57415C1.00733 2.17347 1.09899 1.71221 1.40563 1.40548C1.71228 1.09875 2.17351 1.00695 2.57423 1.1729C2.97496 1.33885 3.23624 1.72986 3.23624 2.16359C3.23573 2.75546 2.75614 3.23518 2.16427 3.23587L2.16427 3.23587Z" transform="translate(33.97587 28.93938)" id="Shape" fill="#67A688" stroke="none" />
    </g>
  </g>
</svg>