<?xml version="1.0" encoding="utf-8"?>
<svg width="93px" height="17px" viewbox="0 0 93 17" version="1.1" xmlns:xlink="http://www.w3.org/1999/xlink" xmlns="http://www.w3.org/2000/svg">
  <g id="ic_logo_dark_black">
    <g id="Logo">
      <path d="M8.82098 1.51895C6.89193 3.45808 5.61091 5.0187 4.97794 6.20079C4.35318 7.36753 3.9553 9.25885 3.78429 11.8748C3.7843 11.8722 3.78431 11.8697 3.78431 11.8671C3.78431 10.5465 2.69272 9.47588 1.34617 9.47588C0.848554 9.47588 0.385756 9.62209 0 9.8731C1.95577 8.21895 3.21206 6.81619 3.76886 5.66483C4.36029 4.44186 4.73553 2.55358 4.89458 0C5.06934 1.15239 6.08244 2.03645 7.30606 2.03645C7.87855 2.03645 8.40496 1.84293 8.82098 1.51895Z" transform="translate(0.8210596 2.4803555)" id="Combined-Shape" fill="#24303B" stroke="none" />
      <path d="M8.82098 1.51895C6.89193 3.45808 5.61091 5.0187 4.97794 6.20079C4.35318 7.36753 3.9553 9.25885 3.78429 11.8748C3.7843 11.8722 3.78431 11.8697 3.78431 11.8671C3.78431 10.5465 2.69272 9.47588 1.34617 9.47588C0.848554 9.47588 0.385756 9.62209 0 9.8731C1.95577 8.21895 3.21206 6.81619 3.76886 5.66483C4.36029 4.44186 4.73553 2.55358 4.89458 0C5.06934 1.15239 6.08244 2.03645 7.30606 2.03645C7.87855 2.03645 8.40496 1.84293 8.82098 1.51895Z" transform="translate(16.26258 2.4803555)" id="Combined-Shape" fill="#24303B" stroke="none" />
      <path d="M7.70963 13.2202C7.06351 10.7737 6.22241 8.78798 5.18632 7.26301C4.08867 5.64742 2.35989 4.22813 0 3.00514L0.0393347 2.95845C0.231164 3.00603 0.432048 3.03131 0.638951 3.03131C1.9855 3.03131 3.07709 1.96071 3.07709 0.64006C3.07709 0.418367 3.04633 0.203719 2.98876 0C4.26042 3.01177 5.37838 5.16535 6.34266 6.46076C7.28043 7.72056 8.91412 9.14665 11.2437 10.739C10.9076 10.5676 10.5256 10.4707 10.1206 10.4707C8.77404 10.4707 7.68245 11.5413 7.68245 12.862C7.68245 12.9838 7.69173 13.1034 7.70963 13.2202Z" transform="translate(7.488165 1.4854934)" id="Combined-Shape" fill="#24303B" stroke="none" />
      <path d="M2.09951 4.11826C3.25903 4.11826 4.19901 3.19636 4.19901 2.05913C4.19901 0.921904 3.25903 0 2.09951 0C0.939981 0 0 0.921904 0 2.05913C0 3.19636 0.939981 4.11826 2.09951 4.11826Z" transform="translate(15.495688 12.301641)" id="Oval-3" fill="#24303B" stroke="none" />
      <path d="M2.09951 4.11826C3.25903 4.11826 4.19901 3.19636 4.19901 2.05913C4.19901 0.921904 3.25903 0 2.09951 0C0.939981 0 0 0.921904 0 2.05913C0 3.19636 0.939981 4.11826 2.09951 4.11826Z" transform="translate(0.054167546 12.301641)" id="Oval-3-Copy" fill="#24303B" stroke="none" />
      <path d="M2.09951 4.11826C3.25903 4.11826 4.19901 3.19636 4.19901 2.05913C4.19901 0.921904 3.25903 0 2.09951 0C0.939981 0 0 0.921904 0 2.05913C0 3.19636 0.939981 4.11826 2.09951 4.11826Z" transform="translate(21.455574 0.07970907)" id="Oval-3-Copy-3" fill="#24303B" stroke="none" />
      <path d="M2.09951 4.11826C3.25903 4.11826 4.19901 3.19636 4.19901 2.05913C4.19901 0.921904 3.25903 0 2.09951 0C0.939981 0 0 0.921904 0 2.05913C0 3.19636 0.939981 4.11826 2.09951 4.11826Z" transform="translate(6.014053 0.07970907)" id="Oval-3-Copy-2" fill="#24303B" stroke="none" />
    </g>
    <path d="M7.23087 10.8424L6.14001 10.8424C5.82833 10.8424 5.5738 10.7426 5.3764 10.543C5.17901 10.3434 5.08031 10.086 5.08031 9.77077L5.08031 5.48424C5.08031 4.97994 4.92967 4.61223 4.62838 4.38109C4.32709 4.14995 3.98945 4.03438 3.61544 4.03438C3.24142 4.03438 2.90897 4.14995 2.61807 4.38109C2.32718 4.61223 2.18173 4.97994 2.18173 5.48424L2.18173 10.8424L0 10.8424L0 5.9255C0 4.49665 0.368812 3.54059 1.10645 3.05731C1.84408 2.57402 2.65963 2.31137 3.5531 2.26934C4.46735 2.26934 5.30887 2.51098 6.07767 2.99427C6.84648 3.47756 7.23087 4.45463 7.23087 5.9255L7.23087 10.8424ZM14.6695 8.25788L16.2279 8.25788C15.9993 9.14041 15.563 9.8128 14.9189 10.2751C14.2747 10.7584 13.4644 11 12.4878 11C11.3034 11 10.3788 10.6113 9.71388 9.83381C9.04897 9.07736 8.71652 7.99523 8.71652 6.58739C8.71652 5.24259 9.03858 4.19198 9.68272 3.43553C10.3476 2.65807 11.2723 2.26934 12.4566 2.26934C13.7033 2.26934 14.6695 2.64756 15.3552 3.40401C16.0201 4.18147 16.3526 5.2636 16.3526 6.65043L16.3526 6.99714C16.3526 7.1022 16.3422 7.17574 16.3214 7.21777L10.9294 7.21777C10.9502 7.86915 11.106 8.35243 11.3969 8.66762C11.6671 9.00382 12.0722 9.17192 12.6125 9.17192C12.9657 9.17192 13.267 9.09838 13.5163 8.95129C13.5787 8.93028 13.6358 8.89351 13.6877 8.84097L13.8592 8.66762C13.8799 8.60458 13.9579 8.52054 14.0929 8.41547C14.228 8.31041 14.4202 8.25788 14.6695 8.25788ZM10.9294 5.79943L14.1085 5.79943C14.067 5.23209 13.9215 4.81184 13.6722 4.53868C13.402 4.24451 13.0176 4.09742 12.519 4.09742C12.0618 4.09742 11.6878 4.24451 11.3969 4.53868C11.106 4.83286 10.9502 5.2531 10.9294 5.79943ZM25.2561 2.45845L25.2561 7.37536C25.2561 8.86725 24.8717 9.84431 24.1029 10.3066C23.3341 10.7689 22.4926 11 21.5783 11C20.6849 10.958 19.8693 10.7058 19.1317 10.2436C18.394 9.78128 18.0252 8.82522 18.0252 7.37536L18.0252 2.45845L20.207 2.45845L20.207 7.81662C20.207 8.32092 20.3524 8.68863 20.6433 8.91977C20.9342 9.15091 21.2667 9.26648 21.6407 9.26648C22.0147 9.26648 22.3523 9.15091 22.6536 8.91977C22.9549 8.68863 23.1055 8.32092 23.1055 7.81662L23.1055 3.53009C23.1055 3.23591 23.2042 2.98376 23.4016 2.77364C23.599 2.56351 23.8536 2.45845 24.1652 2.45845L25.2561 2.45845ZM26.9288 10.8424L26.9288 6.7765C26.9288 5.95702 27.0482 5.26887 27.2872 4.71203C27.5261 4.1552 27.8534 3.70869 28.269 3.37249C28.6638 3.0573 29.1261 2.82617 29.6559 2.67908C30.1858 2.532 30.7312 2.45845 31.2922 2.45845L31.6039 2.45845L31.6039 4.69627L30.887 4.69627C30.2845 4.69627 29.8377 4.84336 29.5468 5.13754C29.2559 5.43171 29.1105 5.89398 29.1105 6.52436L29.1105 10.8424L26.9288 10.8424ZM50.2109 10.8424L49.1201 10.8424C48.8084 10.8424 48.5538 10.7426 48.3564 10.543C48.159 10.3434 48.0604 10.086 48.0604 9.77077L48.0604 5.48424C48.0604 4.97994 47.9097 4.61223 47.6084 4.38109C47.3071 4.14995 46.9695 4.03438 46.5955 4.03438C46.2215 4.03438 45.889 4.14995 45.5981 4.38109C45.3072 4.61223 45.1618 4.97994 45.1618 5.48424L45.1618 10.8424L42.98 10.8424L42.98 5.9255C42.98 4.49665 43.3489 3.54059 44.0865 3.05731C44.8241 2.57402 45.6397 2.31137 46.5331 2.26934C47.4474 2.26934 48.2889 2.51098 49.0577 2.99427C49.8265 3.47756 50.2109 4.45463 50.2109 5.9255L50.2109 10.8424ZM52.0706 2.45845L53.1926 2.45845C53.4835 2.45845 53.7328 2.56351 53.9406 2.77364C54.1484 2.98376 54.2523 3.23591 54.2523 3.53009L54.2523 10.8424L52.0706 10.8424L52.0706 2.45845ZM52.0706 0L53.1926 0C53.4835 0 53.7328 0.105061 53.9406 0.315186C54.1484 0.525311 54.2523 0.777458 54.2523 1.07163L54.2523 1.73352L52.0706 1.73352L52.0706 0ZM61.4416 8.25788L63 8.25788C62.7714 9.14041 62.3351 9.8128 61.691 10.2751C61.0468 10.7584 60.2365 11 59.2599 11C58.0755 11 57.1509 10.6113 56.486 9.83381C55.8211 9.07736 55.4886 7.99523 55.4886 6.58739C55.4886 5.24259 55.8107 4.19198 56.4548 3.43553C57.1197 2.65807 58.0444 2.26934 59.2287 2.26934C60.4754 2.26934 61.4416 2.64756 62.1273 3.40401C62.5013 3.86629 62.7714 4.4021 62.9377 5.01146L60.7559 5.01146C60.652 4.80134 60.5482 4.64374 60.4443 4.53868C60.1741 4.24451 59.7897 4.09742 59.2911 4.09742C58.8339 4.09742 58.4599 4.24451 58.169 4.53868C57.795 4.95893 57.608 5.65234 57.608 6.61891C57.608 7.58549 57.795 8.26838 58.169 8.66762C58.4391 9.00382 58.8443 9.17192 59.3846 9.17192C59.7378 9.17192 60.0391 9.09838 60.2884 8.95129C60.3508 8.93028 60.4079 8.89351 60.4598 8.84097L60.6313 8.66762C60.6728 8.60458 60.7559 8.52054 60.8806 8.41547C61.0053 8.31041 61.1923 8.25788 61.4416 8.25788Z" transform="translate(30 3)" id="neur-nic" fill="#24303B" stroke="none" />
    <path d="M4.5 9C2.01472 9 0 6.98528 0 4.5C0 2.01472 2.01472 0 4.5 0C6.98528 0 9 2.01472 9 4.5C9 6.98528 6.98528 9 4.5 9ZM4.5 7.2C5.99117 7.2 7.2 5.99117 7.2 4.5C7.2 3.00883 5.99117 1.8 4.5 1.8C3.00883 1.8 1.8 3.00883 1.8 4.5C1.8 5.99117 3.00883 7.2 4.5 7.2Z" transform="translate(62 5)" id="Oval-Copy-2" fill="#24303B" stroke="none" />
  </g>
</svg>