<?xml version="1.0" encoding="utf-8"?>
<svg width="120px" height="22px" viewbox="0 0 120 22" version="1.1" xmlns:xlink="http://www.w3.org/1999/xlink" xmlns="http://www.w3.org/2000/svg">
  <g id="ic_logo_dark_black">
    <g id="Logo">
      <path d="M11.1959 1.9657C8.74745 4.47516 7.12155 6.49478 6.31815 8.02455C5.52519 9.53445 5.02019 11.982 4.80314 15.3673C4.80315 15.364 4.80316 15.3608 4.80316 15.3575C4.80316 13.6484 3.41768 12.2629 1.7086 12.2629C1.07701 12.2629 0.489613 12.4521 0 12.777C2.48233 10.6363 4.07685 8.82096 4.78356 7.33095C5.53422 5.74829 6.01048 3.30463 6.21235 0C6.43417 1.49133 7.72001 2.6354 9.27307 2.6354C9.9997 2.6354 10.6678 2.38496 11.1959 1.9657Z" transform="translate(1.042114 3.2098718)" id="Combined-Shape" fill="#FFFFFF" stroke="none" />
      <path d="M11.1959 1.9657C8.74745 4.47516 7.12155 6.49478 6.31815 8.02455C5.52519 9.53445 5.02019 11.982 4.80314 15.3673C4.80315 15.364 4.80316 15.3608 4.80316 15.3575C4.80316 13.6484 3.41768 12.2629 1.7086 12.2629C1.07701 12.2629 0.489613 12.4521 0 12.777C2.48233 10.6363 4.07685 8.82096 4.78356 7.33095C5.53422 5.74829 6.01048 3.30463 6.21235 0C6.43417 1.49133 7.72001 2.6354 9.27307 2.6354C9.9997 2.6354 10.6678 2.38496 11.1959 1.9657Z" transform="translate(20.640968 3.2098718)" id="Combined-Shape" fill="#FFFFFF" stroke="none" />
      <path d="M9.7853 17.1086C8.96523 13.9425 7.89768 11.3727 6.58264 9.39919C5.18946 7.30843 2.99525 5.4717 0 3.88901L0.0499248 3.82859C0.2934 3.89016 0.548369 3.92287 0.810977 3.92287C2.52005 3.92287 3.90553 2.53739 3.90553 0.828313C3.90553 0.541416 3.86649 0.263637 3.79343 0C5.40746 3.89758 6.82641 6.68458 8.05029 8.36098C9.24054 9.99132 11.3141 11.8368 14.2709 13.8975C13.8443 13.6757 13.3594 13.5504 12.8454 13.5504C11.1363 13.5504 9.7508 14.9359 9.7508 16.6449C9.7508 16.8025 9.76258 16.9573 9.7853 17.1086Z" transform="translate(9.5042095 1.9224033)" id="Combined-Shape" fill="#FFFFFF" stroke="none" />
      <path d="M2.66476 5.32951C4.13646 5.32951 5.32951 4.13646 5.32951 2.66476C5.32951 1.19305 4.13646 0 2.66476 0C1.19305 0 0 1.19305 0 2.66476C0 4.13646 1.19305 5.32951 2.66476 5.32951Z" transform="translate(19.667604 15.919772)" id="Oval-3" fill="#FFFFFF" stroke="none" />
      <path d="M2.66476 5.32951C4.13646 5.32951 5.32951 4.13646 5.32951 2.66476C5.32951 1.19305 4.13646 0 2.66476 0C1.19305 0 0 1.19305 0 2.66476C0 4.13646 1.19305 5.32951 2.66476 5.32951Z" transform="translate(0.06875112 15.919772)" id="Oval-3-Copy" fill="#FFFFFF" stroke="none" />
      <path d="M2.66476 5.32951C4.13646 5.32951 5.32951 4.13646 5.32951 2.66476C5.32951 1.19305 4.13646 0 2.66476 0C1.19305 0 0 1.19305 0 2.66476C0 4.13646 1.19305 5.32951 2.66476 5.32951Z" transform="translate(27.232075 0.10315291)" id="Oval-3-Copy-3" fill="#FFFFFF" stroke="none" />
      <path d="M2.66476 5.32951C4.13646 5.32951 5.32951 4.13646 5.32951 2.66476C5.32951 1.19305 4.13646 0 2.66476 0C1.19305 0 0 1.19305 0 2.66476C0 4.13646 1.19305 5.32951 2.66476 5.32951Z" transform="translate(7.633221 0.10315291)" id="Oval-3-Copy-2" fill="#FFFFFF" stroke="none" />
    </g>
    <path d="M9.34814 13.861L7.93786 13.861C7.53492 13.861 7.20586 13.7334 6.95066 13.4782C6.69547 13.223 6.56787 12.894 6.56787 12.491L6.56787 7.0111C6.56787 6.3664 6.37312 5.89631 5.98361 5.60082C5.59411 5.30534 5.1576 5.15759 4.67407 5.15759C4.19054 5.15759 3.76075 5.30534 3.38467 5.60082C3.00859 5.89631 2.82056 6.3664 2.82056 7.0111L2.82056 13.861L0 13.861L0 7.57522C0 5.74856 0.476804 4.52633 1.43043 3.90849C2.38405 3.29065 3.43839 2.95487 4.59348 2.90115C5.77544 2.90115 6.86335 3.21006 7.85727 3.8279C8.85119 4.44574 9.34814 5.69483 9.34814 7.57522L9.34814 13.861ZM18.9649 10.5569L20.9796 10.5569C20.6841 11.6852 20.12 12.5448 19.2873 13.1357C18.4545 13.7536 17.4069 14.0625 16.1443 14.0625C14.6132 14.0625 13.4178 13.5655 12.5582 12.5716C11.6986 11.6046 11.2688 10.2212 11.2688 8.42138C11.2688 6.70218 11.6852 5.35907 12.5179 4.39201C13.3775 3.3981 14.5729 2.90115 16.104 2.90115C17.7158 2.90115 18.9649 3.38467 19.8514 4.35172C20.711 5.34564 21.1408 6.72904 21.1408 8.50197L21.1408 8.9452C21.1408 9.07951 21.1273 9.17353 21.1005 9.22726L14.1297 9.22726C14.1565 10.06 14.358 10.6778 14.7341 11.0808C15.0833 11.5106 15.6071 11.7255 16.3055 11.7255C16.7622 11.7255 17.1517 11.6314 17.474 11.4434C17.5546 11.4165 17.6285 11.3695 17.6956 11.3024L17.9173 11.0808C17.9441 11.0002 18.0449 10.8927 18.2195 10.7584C18.3941 10.6241 18.6425 10.5569 18.9649 10.5569ZM14.1297 7.41404L18.2396 7.41404C18.1859 6.68875 17.9979 6.15151 17.6755 5.80229C17.3263 5.42622 16.8293 5.23818 16.1846 5.23818C15.5937 5.23818 15.1101 5.42622 14.7341 5.80229C14.358 6.17837 14.1565 6.71561 14.1297 7.41404ZM32.6513 3.14291L32.6513 9.42873C32.6513 11.336 32.1544 12.5851 31.1605 13.176C30.1665 13.767 29.0786 14.0625 27.8967 14.0625C26.7416 14.0088 25.6872 13.6864 24.7336 13.0955C23.78 12.5045 23.3032 11.2822 23.3032 9.42873L23.3032 3.14291L26.1237 3.14291L26.1237 9.99284C26.1237 10.6375 26.3118 11.1076 26.6879 11.4031C27.0639 11.6986 27.4937 11.8463 27.9773 11.8463C28.4608 11.8463 28.8973 11.6986 29.2868 11.4031C29.6763 11.1076 29.8711 10.6375 29.8711 9.99284L29.8711 4.51289C29.8711 4.13682 29.9987 3.81447 30.2539 3.54585C30.509 3.27722 30.8381 3.14291 31.241 3.14291L32.6513 3.14291ZM34.8138 13.861L34.8138 8.66315C34.8138 7.6155 34.9682 6.73577 35.2771 6.02391C35.5861 5.31205 36.0091 4.74123 36.5464 4.31143C37.0568 3.90849 37.6545 3.613 38.3395 3.42496C39.0244 3.23693 39.7296 3.14291 40.4549 3.14291L40.8578 3.14291L40.8578 6.00376L39.9311 6.00376C39.152 6.00376 38.5745 6.1918 38.1984 6.56787C37.8223 6.94395 37.6343 7.53492 37.6343 8.3408L37.6343 13.861L34.8138 13.861ZM64.9131 13.861L63.5029 13.861C63.0999 13.861 62.7709 13.7334 62.5157 13.4782C62.2605 13.223 62.1329 12.894 62.1329 12.491L62.1329 7.0111C62.1329 6.3664 61.9381 5.89631 61.5486 5.60082C61.1591 5.30534 60.7226 5.15759 60.2391 5.15759C59.7555 5.15759 59.3258 5.30534 58.9497 5.60082C58.5736 5.89631 58.3856 6.3664 58.3856 7.0111L58.3856 13.861L55.565 13.861L55.565 7.57522C55.565 5.74856 56.0418 4.52633 56.9954 3.90849C57.9491 3.29065 59.0034 2.95487 60.1585 2.90115C61.3404 2.90115 62.4284 3.21006 63.4223 3.8279C64.4162 4.44574 64.9131 5.69483 64.9131 7.57522L64.9131 13.861ZM67.3173 3.14291L68.7679 3.14291C69.144 3.14291 69.4663 3.27722 69.735 3.54585C70.0036 3.81447 70.1379 4.13682 70.1379 4.51289L70.1379 13.861L67.3173 13.861L67.3173 3.14291ZM67.3173 0L68.7679 0C69.144 0 69.4663 0.134311 69.735 0.402937C70.0036 0.671563 70.1379 0.993909 70.1379 1.36999L70.1379 2.21615L67.3173 2.21615L67.3173 0ZM79.4323 10.5569L81.447 10.5569C81.1515 11.6852 80.5874 12.5448 79.7547 13.1357C78.9219 13.7536 77.8743 14.0625 76.6118 14.0625C75.0806 14.0625 73.8852 13.5655 73.0256 12.5716C72.166 11.6046 71.7362 10.2212 71.7362 8.42138C71.7362 6.70218 72.1526 5.35907 72.9853 4.39201C73.8449 3.3981 75.0403 2.90115 76.5715 2.90115C78.1832 2.90115 79.4323 3.38467 80.3188 4.35172C80.8023 4.9427 81.1515 5.62768 81.3664 6.4067L78.5459 6.4067C78.4115 6.13807 78.2772 5.93661 78.1429 5.80229C77.7937 5.42622 77.2967 5.23818 76.652 5.23818C76.0611 5.23818 75.5775 5.42622 75.2015 5.80229C74.7179 6.33954 74.4762 7.226 74.4762 8.46168C74.4762 9.69736 74.7179 10.5704 75.2015 11.0808C75.5507 11.5106 76.0745 11.7255 76.7729 11.7255C77.2296 11.7255 77.6191 11.6314 77.9414 11.4434C78.022 11.4165 78.0959 11.3695 78.1631 11.3024L78.3847 11.0808C78.4384 11.0002 78.5458 10.8927 78.707 10.7584C78.8682 10.6241 79.11 10.5569 79.4323 10.5569Z" transform="translate(38.309902 3.3309455)" id="neur-nic" fill="#FFFFFF" stroke="none" />
    <path d="M6.01719 12.0344C2.69399 12.0344 0 9.34039 0 6.01719C0 2.69399 2.69399 0 6.01719 0C9.34039 0 12.0344 2.69399 12.0344 6.01719C12.0344 9.34039 9.34039 12.0344 6.01719 12.0344ZM6.01719 9.62751C8.01111 9.62751 9.62751 8.01111 9.62751 6.01719C9.62751 4.02327 8.01111 2.40688 6.01719 2.40688C4.02327 2.40688 2.40688 4.02327 2.40688 6.01719C2.40688 8.01111 4.02327 9.62751 6.01719 9.62751Z" transform="translate(80.28653 5.845272)" id="Oval-Copy-2" fill="#FFFFFF" stroke="none" />
  </g>
</svg>