<?xml version="1.0" encoding="utf-8"?>
<svg width="100px" height="100px" viewbox="0 0 100 100" version="1.1" xmlns:xlink="http://www.w3.org/1999/xlink" xmlns="http://www.w3.org/2000/svg">
  <defs>
    <linearGradient x1="0.08391827" y1="0.91608053" x2="0.91608155" y2="0.083910905" id="gradient_1">
      <stop offset="0" stop-color="#FFD600" />
      <stop offset="0.5" stop-color="#FF0100" />
      <stop offset="1" stop-color="#D800B9" />
    </linearGradient>
    <linearGradient x1="0.14644846" y1="0.85355425" x2="0.8535546" y2="0.14644809" id="gradient_2">
      <stop offset="0" stop-color="#FF6400" />
      <stop offset="0.5" stop-color="#FF0100" />
      <stop offset="1" stop-color="#FD0056" />
    </linearGradient>
    <linearGradient x1="0.14647198" y1="0.8535396" x2="0.8535465" y2="0.14646506" id="gradient_3">
      <stop offset="0" stop-color="#F30072" />
      <stop offset="1" stop-color="#E50097" />
    </linearGradient>
  </defs>
  <g id="instagram">
    <path d="M99.6994 29.3854C99.456 24.0631 98.6107 20.4285 97.3747 17.2485C96.1197 13.9122 94.1513 10.8902 91.6077 8.39233C89.1106 5.84869 86.0878 3.87955 82.7515 2.62375C79.5708 1.38855 75.9369 0.543976 70.6146 0.302124C65.2824 0.0579834 63.5788 0 50 0C36.4212 0 34.7176 0.0579834 29.3854 0.300598C24.0631 0.543976 20.4292 1.38931 17.2485 2.62527C13.9122 3.88031 10.8902 5.84869 8.39233 8.39233C5.84869 10.8894 3.87955 13.9114 2.62375 17.2478C1.38855 20.4285 0.543976 24.0631 0.302124 29.3846C0.0579834 34.7176 0 36.4204 0 49.9992C0 63.5788 0.0579834 65.2824 0.302124 70.6146C0.544739 75.9361 1.39008 79.5708 2.62604 82.7515C3.88107 86.087 5.84946 89.1098 8.3931 91.6069C10.8902 94.1505 13.913 96.1189 17.2493 97.374C20.4292 98.6107 24.0639 99.4553 29.3861 99.6986C34.7191 99.942 36.422 99.9992 50.0008 99.9992C63.5796 99.9992 65.2832 99.942 70.6154 99.6986C75.9377 99.4553 79.5715 98.6107 82.7522 97.374C89.4684 94.7769 94.7777 89.4676 97.3747 82.7515C98.6115 79.5708 99.456 75.9361 99.6994 70.6146C99.942 65.2817 100 63.5788 100 50C100 36.4204 99.942 34.7176 99.6994 29.3854ZM90.699 70.2049C90.477 75.0801 89.6622 77.7275 88.9778 79.4891C87.2955 83.8501 83.8493 87.2963 79.4884 88.9786C77.7267 89.6629 75.0793 90.4778 70.2042 90.6998C64.933 90.9409 63.3514 90.9912 50 90.9912C36.6478 90.9912 35.067 90.9409 29.7951 90.6998C24.9207 90.4778 22.2733 89.6629 20.5109 88.9786C18.3395 88.1767 16.375 86.8988 14.7621 85.2379C13.1012 83.625 11.8233 81.6612 11.0214 79.4891C10.3371 77.7275 9.52225 75.0801 9.30023 70.2049C9.05991 64.933 9.00879 63.3514 9.00879 50.0008C9.00879 36.6493 9.05991 35.0685 9.30023 29.7958C9.52301 24.9207 10.3371 22.2733 11.0214 20.5116C11.8233 18.3395 13.102 16.375 14.7621 14.7621C16.375 13.1012 18.3395 11.8233 20.5116 11.0222C22.2733 10.3371 24.9207 9.52301 29.7958 9.30023C35.0677 9.05991 36.6493 9.00879 50 9.00879L49.9992 9.00879C63.3499 9.00879 64.9315 9.05991 70.2042 9.30099C75.0793 9.52301 77.726 10.3378 79.4884 11.0222C81.6597 11.824 83.6243 13.102 85.2371 14.7621C86.898 16.375 88.176 18.3395 88.9771 20.5116C89.6622 22.2733 90.477 24.9207 90.699 29.7958C90.9393 35.0677 90.9904 36.6493 90.9904 50C90.9904 63.3514 90.9401 64.9323 90.699 70.2049Z" id="Shape" fill="url(#gradient_1)" stroke="none" />
    <path d="M25.6752 0C11.4952 0 0 11.496 0 25.676C0 39.856 11.4952 51.3512 25.6752 51.3512C39.856 51.3512 51.3512 39.856 51.3512 25.676C51.3512 11.496 39.856 0 25.6752 0ZM25.6752 42.3424C16.4711 42.3416 9.00879 34.8801 9.00955 25.6752C9.00955 16.4711 16.4711 9.00879 25.676 9.00879C34.8808 9.00955 42.3424 16.4711 42.3424 25.6752C42.3424 34.8801 34.8801 42.3424 25.6752 42.3424Z" transform="translate(24.323975 24.323975)" id="Shape" fill="url(#gradient_2)" stroke="none" />
    <path d="M12.0003 6.00052C12.0003 9.31396 9.31396 12.0003 6.00052 12.0003C2.68631 12.0003 0 9.31396 0 6.00052C0 2.68631 2.68631 0 6.00052 0C9.31396 0 12.0003 2.68631 12.0003 6.00052L12.0003 6.00052Z" transform="translate(70.68945 17.30957)" id="Path" fill="url(#gradient_3)" stroke="none" />
  </g>
</svg>