<?xml version="1.0" encoding="utf-8"?>
<svg width="28px" height="19px" viewbox="0 0 28 19" version="1.1" xmlns:xlink="http://www.w3.org/1999/xlink" xmlns="http://www.w3.org/2000/svg">
  <g id="Group-2" transform="translate(0.5 0.5)">
    <path d="M1.999 0L24.001 0Q24.0992 0 24.1969 0.00962573Q24.2947 0.0192515 24.391 0.0384102Q24.4873 0.057569 24.5813 0.0860763Q24.6753 0.114584 24.766 0.152165Q24.8567 0.189746 24.9433 0.236039Q25.0299 0.282333 25.1116 0.336892Q25.1932 0.391452 25.2692 0.453752Q25.3451 0.516052 25.4145 0.585494Q25.4839 0.654935 25.5462 0.730848Q25.6085 0.806761 25.6631 0.888415Q25.7177 0.970069 25.764 1.05668Q25.8103 1.14329 25.8478 1.23402Q25.8854 1.32474 25.9139 1.41872Q25.9424 1.5127 25.9616 1.60901Q25.9807 1.70533 25.9904 1.80306Q26 1.9008 26 1.999L26 15.001Q26 15.0992 25.9904 15.1969Q25.9807 15.2947 25.9616 15.391Q25.9424 15.4873 25.9139 15.5813Q25.8854 15.6753 25.8478 15.766Q25.8103 15.8567 25.764 15.9433Q25.7177 16.0299 25.6631 16.1116Q25.6085 16.1932 25.5462 16.2692Q25.4839 16.3451 25.4145 16.4145Q25.3451 16.4839 25.2692 16.5462Q25.1932 16.6085 25.1116 16.6631Q25.0299 16.7177 24.9433 16.764Q24.8567 16.8103 24.766 16.8478Q24.6753 16.8854 24.5813 16.9139Q24.4873 16.9424 24.391 16.9616Q24.2947 16.9807 24.1969 16.9904Q24.0992 17 24.001 17L1.999 17Q1.9008 17 1.80306 16.9904Q1.70533 16.9807 1.60901 16.9616Q1.5127 16.9424 1.41872 16.9139Q1.32474 16.8854 1.23402 16.8478Q1.14329 16.8103 1.05668 16.764Q0.970069 16.7177 0.888415 16.6631Q0.806761 16.6085 0.730848 16.5462Q0.654935 16.4839 0.585494 16.4145Q0.516052 16.3451 0.453752 16.2692Q0.391452 16.1932 0.336892 16.1116Q0.282333 16.0299 0.236039 15.9433Q0.189746 15.8567 0.152165 15.766Q0.114584 15.6753 0.0860763 15.5813Q0.057569 15.4873 0.0384102 15.391Q0.0192515 15.2947 0.00962573 15.1969Q0 15.0992 0 15.001L0 1.999Q0 1.9008 0.00962573 1.80306Q0.0192515 1.70533 0.0384102 1.60901Q0.057569 1.5127 0.0860763 1.41872Q0.114584 1.32474 0.152165 1.23402Q0.189746 1.14329 0.236039 1.05668Q0.282333 0.970069 0.336892 0.888415Q0.391452 0.806761 0.453752 0.730848Q0.516052 0.654935 0.585494 0.585494Q0.654935 0.516052 0.730848 0.453752Q0.806761 0.391452 0.888415 0.336892Q0.970069 0.282333 1.05668 0.236039Q1.14329 0.189746 1.23402 0.152165Q1.32474 0.114584 1.41872 0.0860763Q1.5127 0.057569 1.60901 0.0384102Q1.70533 0.0192515 1.80306 0.00962573Q1.9008 0 1.999 0L1.999 0Z" transform="translate(1 1)" id="Rectangle" fill="#FFFFFF" fill-rule="evenodd" stroke="none" />
    <path d="M0.826156 0L13.5989 8.30524L26.1648 0.00295634L27 1.15016L13.6057 10L0 1.15312L0.826156 0Z" id="Path" fill="#08C4DC" stroke="none" />
  </g>
</svg>