<?xml version="1.0" encoding="utf-8"?>
<svg width="116px" height="100px" viewbox="0 0 116 100" version="1.1" xmlns:xlink="http://www.w3.org/1999/xlink" xmlns="http://www.w3.org/2000/svg">
  <g id="medium">
    <path d="M1.14976 0.195823C-0.945048 -0.781754 0.562251 -1.26332 0.07587 81.537L35.4227 99.1912C37.1708 100.068 38.6011 99.1912 38.6011 97.2023C38.394 14.9221 39.0634 19.0924 38.0425 18.6398L1.14976 0.195823Z" transform="translate(77.125 0)" id="XMLID_30_" fill="#2FFC8D" stroke="none" />
    <path d="M0 62.177L37.8895 0.594417C39.1416 -1.35111 39.6569 0.719624 76.2173 18.4075C77.8739 19.3032 77.4742 17.2903 38.5252 81.4155L0 62.177Z" transform="translate(38.675537 0.12158203)" id="XMLID_29_" fill="#03E370" stroke="none" />
    <path d="M0.765509 2.38473L36.7866 60.9093L75.3118 80.1912C34.321 13.7545 37.1863 17.8093 36.3484 17.3325C12.4098 6.18909 -3.78046 -5.02174 0.765509 2.38473Z" transform="translate(1.888916 1.3891602)" id="XMLID_28_" fill="#10C767" stroke="none" />
    <path d="M38.6756 96.8302C38.6756 98.7805 37.2454 99.6907 35.4973 98.819L2.29818 82.2002C1.1039 81.6031 0.150404 80.0524 0.150404 78.7378C1.05575 3.65213 -1.83364 -1.73177 2.29818 0.334147L38.1989 18.3062C39.1187 18.8311 38.4637 14.1791 38.6756 96.8302Z" transform="translate(0 0.41552734)" id="XMLID_27_" fill="#00AB6C" stroke="none" />
  </g>
</svg>