<?xml version="1.0" encoding="utf-8"?>
<svg width="334px" height="467px" viewbox="0 0 334 467" version="1.1" xmlns:xlink="http://www.w3.org/1999/xlink" xmlns="http://www.w3.org/2000/svg">
  <path d="M1.999 8.34654e-14L331.001 8.34654e-14Q331.099 8.34654e-14 331.197 0.00962573Q331.295 0.0192515 331.391 0.0384102Q331.487 0.057569 331.581 0.0860763Q331.675 0.114584 331.766 0.152165Q331.857 0.189746 331.943 0.236039Q332.03 0.282333 332.112 0.336892Q332.193 0.391452 332.269 0.453752Q332.345 0.516052 332.414 0.585494Q332.484 0.654935 332.546 0.730848Q332.609 0.806761 332.663 0.888415Q332.718 0.970069 332.764 1.05668Q332.81 1.14329 332.848 1.23402Q332.885 1.32474 332.914 1.41872Q332.942 1.5127 332.962 1.60901Q332.981 1.70533 332.99 1.80306Q333 1.9008 333 1.999L333 464.001Q333 464.099 332.99 464.197Q332.981 464.295 332.962 464.391Q332.942 464.487 332.914 464.581Q332.885 464.675 332.848 464.766Q332.81 464.857 332.764 464.943Q332.718 465.03 332.663 465.112Q332.608 465.193 332.546 465.269Q332.484 465.345 332.414 465.414Q332.345 465.484 332.269 465.546Q332.193 465.609 332.112 465.663Q332.03 465.718 331.943 465.764Q331.857 465.81 331.766 465.848Q331.675 465.885 331.581 465.914Q331.487 465.942 331.391 465.962Q331.295 465.981 331.197 465.99Q331.099 466 331.001 466L1.999 466Q1.9008 466 1.80306 465.99Q1.70533 465.981 1.60901 465.962Q1.5127 465.942 1.41872 465.914Q1.32474 465.885 1.23402 465.848Q1.14329 465.81 1.05668 465.764Q0.970069 465.718 0.888415 465.663Q0.806761 465.608 0.730848 465.546Q0.654935 465.484 0.585494 465.414Q0.516052 465.345 0.453752 465.269Q0.391452 465.193 0.336892 465.112Q0.282333 465.03 0.236039 464.943Q0.189746 464.857 0.152165 464.766Q0.114584 464.675 0.0860763 464.581Q0.057569 464.487 0.0384102 464.391Q0.0192515 464.295 0.00962573 464.197Q0 464.099 0 464.001L0 1.999Q0 1.9008 0.00962573 1.80306Q0.0192515 1.70533 0.0384102 1.60901Q0.057569 1.5127 0.0860763 1.41872Q0.114584 1.32474 0.152165 1.23402Q0.189746 1.14329 0.236039 1.05668Q0.282333 0.970069 0.336892 0.888415Q0.391452 0.806761 0.453752 0.730848Q0.516052 0.654935 0.585494 0.585494Q0.654935 0.516052 0.730848 0.453752Q0.806761 0.391452 0.888415 0.336892Q0.970069 0.282333 1.05668 0.236039Q1.14329 0.189746 1.23402 0.152165Q1.32474 0.114584 1.41872 0.0860763Q1.5127 0.057569 1.60901 0.0384102Q1.70533 0.0192515 1.80306 0.00962573Q1.9008 8.34654e-14 1.999 8.34654e-14L1.999 8.34654e-14Z" transform="translate(0.5 0.5)" id="Rectangle" fill="#161616" fill-rule="evenodd" stroke="none" />
</svg>