<?xml version="1.0" encoding="utf-8"?>
<svg width="51px" height="51px" viewbox="0 0 51 51" version="1.1" xmlns:xlink="http://www.w3.org/1999/xlink" xmlns="http://www.w3.org/2000/svg">
  <g id="search">
    <path d="M33 0C23.0748 0 15 8.0748 15 18C15 22.4238 16.6051 26.4791 19.2622 29.6165L15.75 33.1287L13.5 30.8787L1.3714 43.0073C0.487 43.8916 0 45.0674 0 46.318C0 48.8997 2.1004 51 4.682 51C5.9325 51 7.1083 50.513 7.9926 49.6287L20.1213 37.5L17.8713 35.25L21.3835 31.7378C24.5209 34.3949 28.5763 36 33 36C42.9252 36 51 27.9252 51 18C51 8.0748 42.9252 0 33 0ZM5.8714 47.5073C5.5537 47.825 5.1312 48 4.6819 48C3.7545 48 3 47.2455 3 46.318C3 45.8687 3.175 45.4464 3.4927 45.1286L13.5 35.1213L15.8787 37.5L5.8714 47.5073ZM33 33C24.729 33 18 26.271 18 18C18 9.729 24.729 3 33 3C41.271 3 48 9.729 48 18C48 26.271 41.271 33 33 33Z" transform="matrix(-1 0 0 1 51 0)" id="Shape" fill="#4C25D9" stroke="none" />
    <path d="M12 0C5.3832 0 0 5.3831 0 12C0 18.6169 5.3832 24 12 24C18.6168 24 24 18.6169 24 12C24 5.3831 18.6168 0 12 0ZM12 21C7.0374 21 3 16.9626 3 12C3 7.0374 7.0374 3 12 3C16.9626 3 21 7.0374 21 12C21 16.9626 16.9626 21 12 21Z" transform="translate(6 6)" id="Shape" fill="#4C25D9" stroke="none" />
    <path d="M4.0606 4.9393L2.1212 3L0 5.1212L4.0606 9.1819L11.1212 2.1212L9 0L4.0606 4.9393Z" transform="translate(12.439392 13.939453)" id="Path" fill="#4C25D9" stroke="none" />
  </g>
</svg>