<?xml version="1.0" encoding="utf-8"?>
<svg width="797px" height="729px" viewbox="0 0 797 729" version="1.1" xmlns:xlink="http://www.w3.org/1999/xlink" xmlns="http://www.w3.org/2000/svg">
  <defs>
    <filter filterUnits="userSpaceOnUse" color-interpolation-filters="sRGB" id="filter_1">
      <feFlood flood-opacity="0" result="BackgroundImageFix" />
      <feColorMatrix in="SourceAlpha" type="matrix" values="0 0 0 0 0 0 0 0 0 0 0 0 0 0 0 0 0 0 127 0" />
      <feOffset dx="-4" dy="0" />
      <feGaussianBlur stdDeviation="16" />
      <feColorMatrix type="matrix" values="0 0 0 0 0 0 0 0 0 0 0 0 0 0 0 0 0 0 0.06666667 0" />
      <feBlend mode="normal" in2="BackgroundImageFix" result="effect0_dropShadow" />
      <feBlend mode="normal" in="SourceGraphic" in2="effect0_dropShadow" result="shape" />
    </filter>
    <filter filterUnits="userSpaceOnUse" color-interpolation-filters="sRGB" id="filter_2">
      <feFlood flood-opacity="0" result="BackgroundImageFix" />
      <feBlend mode="normal" in="SourceGraphic" in2="BackgroundImageFix" result="shape" />
      <feColorMatrix in="SourceAlpha" type="matrix" values="0 0 0 0 0 0 0 0 0 0 0 0 0 0 0 0 0 0 127 0" result="hardAlpha" />
      <feOffset dx="2" dy="5" />
      <feGaussianBlur stdDeviation="5" />
      <feComposite in2="hardAlpha" operator="arithmetic" k2="-1" k3="1" />
      <feColorMatrix type="matrix" values="0 0 0 0 0.8980392 0 0 0 0 0.8980392 0 0 0 0 0.8980392 0 0 0 0.36078432 0" />
      <feBlend mode="normal" in2="shape" result="effect0_innerShadow" />
    </filter>
    <path d="M14.999 0.00049063L548.008 0.00049063Q548.376 0.00049063 548.744 0.0185576Q549.112 0.0366245 549.478 0.0727149Q549.845 0.108805 550.209 0.162832Q550.573 0.216859 550.934 0.288692Q551.295 0.360525 551.652 0.449992Q552.01 0.539458 552.362 0.646342Q552.714 0.753227 553.061 0.877271Q553.408 1.00132 553.748 1.14222Q554.088 1.28313 554.421 1.44056Q554.754 1.59798 555.078 1.77155Q555.403 1.94512 555.719 2.13442Q556.035 2.32371 556.341 2.52828Q556.647 2.73284 556.943 2.95218Q557.238 3.17152 557.523 3.40511Q557.808 3.63869 558.081 3.88596Q558.353 4.13324 558.614 4.3936Q558.874 4.65396 559.121 4.92678Q559.369 5.1996 559.602 5.48423Q559.836 5.76885 560.055 6.0646Q560.275 6.36034 560.479 6.66649Q560.684 6.97264 560.873 7.28846Q561.062 7.60428 561.236 7.92901Q561.409 8.25374 561.567 8.58659Q561.724 8.91944 561.865 9.25962Q562.006 9.5998 562.13 9.94648Q562.254 10.2932 562.361 10.6455Q562.468 10.9979 562.557 11.355Q562.647 11.7122 562.719 12.0733Q562.791 12.4345 562.845 12.7987Q562.899 13.1629 562.935 13.5293Q562.971 13.8958 562.989 14.2635Q563.007 14.6313 563.007 14.9995L563.007 813.528Q563.007 813.897 562.989 814.264Q562.971 814.632 562.935 814.998Q562.899 815.365 562.845 815.729Q562.791 816.093 562.719 816.454Q562.647 816.816 562.557 817.173Q562.468 817.53 562.361 817.882Q562.254 818.235 562.13 818.581Q562.006 818.928 561.865 819.268Q561.724 819.608 561.567 819.941Q561.409 820.274 561.236 820.599Q561.062 820.923 560.873 821.239Q560.684 821.555 560.479 821.861Q560.275 822.167 560.055 822.463Q559.836 822.759 559.602 823.044Q559.369 823.328 559.121 823.601Q558.874 823.874 558.614 824.134Q558.353 824.395 558.081 824.642Q557.808 824.889 557.523 825.123Q557.238 825.356 556.943 825.576Q556.647 825.795 556.341 826Q556.035 826.204 555.719 826.393Q555.403 826.583 555.078 826.756Q554.754 826.93 554.421 827.087Q554.088 827.245 553.748 827.386Q553.408 827.526 553.061 827.651Q552.714 827.775 552.362 827.881Q552.01 827.988 551.652 828.078Q551.295 828.167 550.934 828.239Q550.573 828.311 550.209 828.365Q549.844 828.419 549.478 828.455Q549.112 828.491 548.744 828.509Q548.376 828.527 548.008 828.527L14.999 828.527Q14.6308 828.527 14.263 828.509Q13.8953 828.491 13.5288 828.455Q13.1624 828.419 12.7982 828.365Q12.434 828.311 12.0728 828.239Q11.7117 828.167 11.3545 828.078Q10.9974 827.988 10.645 827.881Q10.2927 827.775 9.94599 827.651Q9.59931 827.526 9.25913 827.386Q8.91895 827.245 8.5861 827.087Q8.25325 826.93 7.92852 826.756Q7.60379 826.583 7.28797 826.393Q6.97215 826.204 6.666 826Q6.35985 825.795 6.06411 825.576Q5.76836 825.356 5.48373 825.123Q5.19911 824.889 4.92629 824.642Q4.65346 824.395 4.39311 824.134Q4.13274 823.874 3.88547 823.601Q3.6382 823.328 3.40462 823.044Q3.17103 822.759 2.95169 822.463Q2.73235 822.167 2.52779 821.861Q2.32322 821.555 2.13393 821.239Q1.94463 820.923 1.77106 820.599Q1.59749 820.274 1.44006 819.941Q1.28264 819.608 1.14173 819.268Q1.00082 818.928 0.87678 818.581Q0.752736 818.235 0.645852 817.882Q0.538968 817.53 0.449501 817.173Q0.360035 816.816 0.288202 816.454Q0.216368 816.093 0.162341 815.729Q0.108315 815.365 0.0722243 814.998Q0.0361339 814.632 0.0180669 814.264Q-2.18772e-13 813.897 -2.18772e-13 813.528L-2.18772e-13 14.9995Q-2.18772e-13 14.6313 0.0180669 14.2635Q0.0361339 13.8958 0.0722243 13.5293Q0.108315 13.1629 0.162341 12.7987Q0.216368 12.4345 0.288202 12.0733Q0.360035 11.7122 0.449501 11.355Q0.538968 10.9979 0.645852 10.6455Q0.752736 10.2932 0.87678 9.94648Q1.00082 9.5998 1.14173 9.25962Q1.28264 8.91944 1.44006 8.58659Q1.59749 8.25374 1.77106 7.92901Q1.94463 7.60428 2.13393 7.28846Q2.32322 6.97264 2.52779 6.66649Q2.73235 6.36034 2.95169 6.0646Q3.17103 5.76885 3.40462 5.48423Q3.6382 5.1996 3.88547 4.92678Q4.13274 4.65396 4.39311 4.3936Q4.65346 4.13324 4.92629 3.88596Q5.19911 3.63869 5.48373 3.40511Q5.76836 3.17152 6.06411 2.95218Q6.35985 2.73284 6.666 2.52828Q6.97215 2.32371 7.28797 2.13442Q7.60379 1.94512 7.92852 1.77155Q8.25325 1.59798 8.5861 1.44056Q8.91895 1.28313 9.25913 1.14222Q9.59931 1.00132 9.94599 0.877271Q10.2927 0.753227 10.645 0.646343Q10.9974 0.539458 11.3545 0.449992Q11.7117 0.360525 12.0728 0.288692Q12.434 0.216859 12.7982 0.162832Q13.1624 0.108805 13.5288 0.0727149Q13.8953 0.0366245 14.263 0.0185576Q14.6308 0.00049063 14.999 0.00049063Z" transform="matrix(-4.371139E-08 -1 1 -4.371139E-08 0.0062713623 563.5338)" id="path_1" />
    <path d="M5.24083 0.0122072L731.104 1.70293Q731.233 1.70323 731.361 1.7098Q731.489 1.71638 731.616 1.72922Q731.744 1.74206 731.87 1.76114Q731.997 1.78021 732.123 1.80547Q732.248 1.83073 732.373 1.86212Q732.497 1.8935 732.619 1.93094Q732.742 1.96837 732.863 2.01177Q732.983 2.05517 733.102 2.10442Q733.22 2.15368 733.336 2.20867Q733.451 2.26366 733.564 2.32426Q733.677 2.38486 733.787 2.45091Q733.897 2.51697 734.003 2.58833Q734.11 2.65969 734.213 2.73618Q734.315 2.81267 734.414 2.89411Q734.513 2.97555 734.608 3.06174Q734.703 3.14793 734.794 3.23866Q734.884 3.32939 734.97 3.42445Q735.056 3.51951 735.137 3.61866Q735.218 3.71782 735.295 3.82084Q735.371 3.92385 735.442 4.03048Q735.513 4.13711 735.579 4.24709Q735.645 4.35708 735.705 4.47015Q735.766 4.58323 735.82 4.69912Q735.875 4.81502 735.924 4.93346Q735.973 5.0519 736.016 5.17259Q736.059 5.29329 736.096 5.41595Q736.134 5.53861 736.165 5.66295Q736.196 5.78729 736.221 5.913Q736.246 6.03871 736.264 6.16549Q736.283 6.29227 736.296 6.41982Q736.308 6.54737 736.315 6.67539Q736.321 6.8034 736.321 6.93156L736.321 526.634Q736.321 526.763 736.315 526.891Q736.308 527.02 736.296 527.147Q736.283 527.275 736.264 527.403Q736.245 527.53 736.22 527.656Q736.195 527.782 736.164 527.906Q736.133 528.031 736.095 528.154Q736.058 528.277 736.014 528.398Q735.971 528.519 735.922 528.638Q735.872 528.757 735.817 528.873Q735.762 528.989 735.702 529.102Q735.641 529.216 735.575 529.326Q735.509 529.436 735.437 529.543Q735.366 529.65 735.289 529.753Q735.212 529.856 735.131 529.955Q735.049 530.055 734.962 530.15Q734.876 530.245 734.785 530.336Q734.694 530.426 734.599 530.513Q734.503 530.599 734.404 530.68Q734.304 530.762 734.201 530.838Q734.098 530.915 733.991 530.986Q733.884 531.057 733.773 531.123Q733.663 531.189 733.55 531.249Q733.436 531.31 733.32 531.365Q733.204 531.419 733.085 531.468Q732.966 531.517 732.845 531.56Q732.724 531.603 732.601 531.641Q732.477 531.678 732.353 531.709Q732.228 531.74 732.102 531.764Q731.976 531.789 731.849 531.808Q731.721 531.826 731.593 531.839Q731.465 531.851 731.337 531.857Q731.209 531.863 731.08 531.863L5.21647 530.172Q5.08831 530.172 4.96031 530.165Q4.83231 530.159 4.70479 530.146Q4.57727 530.133 4.45053 530.114Q4.32379 530.095 4.19814 530.07Q4.07249 530.044 3.94823 530.013Q3.82396 529.981 3.70139 529.944Q3.57881 529.907 3.45821 529.863Q3.33762 529.82 3.2193 529.771Q3.10097 529.721 2.9852 529.666Q2.86944 529.611 2.7565 529.551Q2.64357 529.49 2.53373 529.424Q2.4239 529.358 2.31744 529.287Q2.21098 529.215 2.10814 529.139Q2.0053 529.062 1.90634 528.981Q1.80737 528.899 1.71251 528.813Q1.61765 528.727 1.52713 528.636Q1.43661 528.546 1.35064 528.451Q1.26468 528.356 1.18347 528.256Q1.10226 528.157 1.02601 528.054Q0.949763 527.951 0.878651 527.845Q0.807539 527.738 0.741736 527.628Q0.675934 527.518 0.6156 527.405Q0.555265 527.292 0.500543 527.176Q0.445821 527.06 0.396843 526.942Q0.347865 526.823 0.304749 526.702Q0.261632 526.582 0.224482 526.459Q0.187331 526.336 0.156234 526.212Q0.125138 526.088 0.10017 525.962Q0.075203 525.836 0.0564248 525.709Q0.0376467 525.583 0.0251028 525.455Q0.012559 525.328 0.00627948 525.2Q-3.22913e-12 525.072 -3.22914e-12 524.943L-3.22914e-12 5.24084Q-3.22914e-12 5.1123 0.00631683 4.98391Q0.0126337 4.85552 0.025252 4.72759Q0.0378704 4.59966 0.0567599 4.47251Q0.0756494 4.34536 0.100764 4.21929Q0.125879 4.09322 0.157159 3.96854Q0.188438 3.84386 0.225807 3.72086Q0.263176 3.59787 0.306544 3.47686Q0.349912 3.35585 0.399173 3.23711Q0.448435 3.11838 0.503472 3.00221Q0.558509 2.88604 0.619188 2.77272Q0.679867 2.65939 0.746041 2.54919Q0.812216 2.43898 0.883726 2.33216Q0.955236 2.22534 1.03191 2.12217Q1.10858 2.01899 1.19023 1.91971Q1.27188 1.82042 1.35831 1.72527Q1.44474 1.63012 1.53574 1.53933Q1.62675 1.44854 1.7221 1.36233Q1.81745 1.27612 1.91693 1.1947Q2.0164 1.11328 2.11976 1.03685Q2.22311 0.960416 2.3301 0.889155Q2.43709 0.817894 2.54745 0.751977Q2.6578 0.686059 2.77127 0.625644Q2.88473 0.56523 3.00103 0.510463Q3.11733 0.455697 3.23617 0.406712Q3.35502 0.357727 3.47613 0.314641Q3.59724 0.271556 3.72033 0.234473Q3.84341 0.197391 3.96816 0.166402Q4.09292 0.135413 4.21905 0.110592Q4.34517 0.0857706 4.47237 0.0671773Q4.59956 0.0485841 4.72752 0.0362637Q4.85547 0.0239433 4.98388 0.0179256Q5.11228 0.0119078 5.24083 0.0122072L5.24083 0.0122072Z" transform="translate(76.288475 16.114286)" id="path_2" />
    <path d="M2.999 -1.83583e-13L319.001 -1.83583e-13Q319.148 -1.83583e-13 319.295 0.014441Q319.442 0.028882 319.586 0.0576249Q319.731 0.0863679 319.872 0.129136Q320.013 0.171904 320.149 0.228285Q320.285 0.284667 320.415 0.354118Q320.545 0.42357 320.667 0.505423Q320.79 0.587276 320.904 0.680742Q321.017 0.774208 321.122 0.878387Q321.226 0.982566 321.319 1.09645Q321.413 1.21034 321.495 1.33284Q321.576 1.45535 321.646 1.58528Q321.715 1.71522 321.772 1.85133Q321.828 1.98745 321.871 2.12844Q321.914 2.26942 321.942 2.41392Q321.971 2.55842 321.986 2.70505Q322 2.85167 322 2.999L322 215.001Q322 215.148 321.986 215.295Q321.971 215.442 321.942 215.586Q321.914 215.731 321.871 215.872Q321.828 216.013 321.772 216.149Q321.715 216.285 321.646 216.415Q321.576 216.545 321.495 216.667Q321.413 216.79 321.319 216.904Q321.226 217.017 321.122 217.122Q321.017 217.226 320.904 217.319Q320.79 217.413 320.667 217.495Q320.545 217.576 320.415 217.646Q320.285 217.715 320.149 217.772Q320.013 217.828 319.872 217.871Q319.731 217.914 319.586 217.942Q319.442 217.971 319.295 217.986Q319.148 218 319.001 218L2.999 218Q2.85167 218 2.70505 217.986Q2.55842 217.971 2.41392 217.942Q2.26942 217.914 2.12844 217.871Q1.98745 217.828 1.85133 217.772Q1.71522 217.715 1.58528 217.646Q1.45535 217.576 1.33284 217.495Q1.21034 217.413 1.09645 217.319Q0.982566 217.226 0.878387 217.122Q0.774208 217.017 0.680742 216.904Q0.587276 216.79 0.505423 216.667Q0.42357 216.545 0.354118 216.415Q0.284667 216.285 0.228285 216.149Q0.171904 216.013 0.129136 215.872Q0.0863679 215.731 0.0576249 215.586Q0.028882 215.442 0.014441 215.295Q-1.83036e-13 215.148 -1.83036e-13 215.001L-1.83036e-13 2.999Q-1.83036e-13 2.85167 0.014441 2.70505Q0.028882 2.55842 0.0576249 2.41392Q0.0863679 2.26942 0.129136 2.12844Q0.171904 1.98745 0.228285 1.85133Q0.284667 1.71522 0.354118 1.58528Q0.42357 1.45535 0.505423 1.33284Q0.587276 1.21034 0.680742 1.09645Q0.774208 0.982566 0.878387 0.878387Q0.982566 0.774208 1.09645 0.680742Q1.21034 0.587276 1.33284 0.505423Q1.45535 0.42357 1.58528 0.354118Q1.71522 0.284667 1.85133 0.228285Q1.98745 0.171904 2.12844 0.129136Q2.26942 0.0863679 2.41392 0.0576249Q2.55842 0.028882 2.70505 0.014441Q2.85167 -1.83583e-13 2.999 -1.83583e-13L2.999 -1.83583e-13Z" transform="matrix(1 0 0 1 -7.9580786E-13 -2.728484E-12)" id="path_3" />
    <clipPath id="clip_1">
      <use xlink:href="#path_1" />
    </clipPath>
    <clipPath id="clip_2">
      <use xlink:href="#path_3" />
    </clipPath>
    <clipPath id="mask_1">
      <use xlink:href="#path_2" />
    </clipPath>
  </defs>
  <g id="Salesforce-Ipad" transform="matrix(0.9781476 0.2079117 -0.2079117 0.9781476 119.63428 2.3720703)">
    <g id="Horizontal-Device-1" transform="matrix(1 2.1830324E-09 -2.1830324E-09 1 0 0)">
      <g id="Rectangle-8" filter="url(#filter_1)">
        <use stroke="none" fill="#FFFFFF" xlink:href="#path_1" fill-rule="evenodd" filter="url(#filter_2)" />
        <g clip-path="url(#clip_1)">
          <use xlink:href="#path_1" fill="none" stroke="#F0F0F0" stroke-width="2.689535" stroke-linecap="square" />
        </g>
      </g>
      <g id="Rectangle-9">
        <use xlink:href="#path_2" fill="none" stroke="#EFF1F5" stroke-width="4" stroke-linecap="square" />
        <use stroke="none" fill="#FFFFFF" xlink:href="#path_2" fill-rule="evenodd" />
      </g>
      <g clip-path="url(#mask_1)">
        <path d="M0 0L710.805 0L710.805 56.4L0 56.4L0 0Z" transform="translate(65.00586 11.28)" id="Rectangle-10" fill="#FFFFFF" fill-rule="evenodd" stroke="none" />
        <path d="M0 0L710.805 0L710.805 133.749L0 133.749L0 0Z" transform="translate(65.00586 66.06857)" id="Rectangle-10-Copy" fill="#F0F4FA" fill-rule="evenodd" stroke="none" />
        <path d="M0 -1.60298e-13L710.805 -1.60298e-13L710.805 302.949L0 302.949L0 -1.60298e-13Z" transform="translate(65.00586 199.81714)" id="Rectangle-10-Copy-2" fill="#FAFBFD" fill-rule="evenodd" stroke="none" />
        <path d="M0 0L710.805 0L710.805 61.2343L0 61.2343L0 0Z" transform="translate(65.00586 502.76572)" id="Rectangle-10-Copy-3" fill="#FFFFFF" fill-rule="evenodd" stroke="none" />
      </g>
    </g>
    <g id="Fake-Content-left" transform="matrix(1 2.1830324E-09 -2.1830324E-09 1 99.92407 263.0376)">
      <g id="Rectangle-17">
        <use stroke="none" fill="#FFFFFF" xlink:href="#path_3" fill-rule="evenodd" />
        <g clip-path="url(#clip_2)">
          <use xlink:href="#path_3" fill="none" stroke="#EDF1F7" stroke-width="2" stroke-linecap="square" />
        </g>
      </g>
      <path d="M0.999 -1.83583e-13L110.091 -1.83583e-13Q110.189 -1.83583e-13 110.286 0.0191955Q110.382 0.038391 110.473 0.0760443Q110.564 0.113698 110.646 0.168362Q110.728 0.223026 110.797 0.2926Q110.867 0.362175 110.922 0.443985Q110.976 0.525796 111.014 0.616699Q111.052 0.707602 111.071 0.804105Q111.09 0.900607 111.09 0.999L111.09 3.84544Q111.09 3.94384 111.071 4.04034Q111.052 4.13684 111.014 4.22774Q110.976 4.31865 110.922 4.40046Q110.867 4.48227 110.797 4.55184Q110.728 4.62142 110.646 4.67608Q110.564 4.73075 110.473 4.7684Q110.382 4.80605 110.286 4.82525Q110.189 4.84444 110.091 4.84444L0.999 4.84444Q0.900607 4.84444 0.804105 4.82525Q0.707602 4.80605 0.616699 4.7684Q0.525796 4.73075 0.443985 4.67608Q0.362175 4.62142 0.2926 4.55184Q0.223026 4.48227 0.168362 4.40046Q0.113698 4.31865 0.0760443 4.22774Q0.038391 4.13684 0.0191955 4.04034Q-3.66072e-13 3.94384 -3.66072e-13 3.84544L-3.66072e-13 0.999Q-3.66072e-13 0.900607 0.0191955 0.804105Q0.038391 0.707602 0.0760443 0.616699Q0.113698 0.525796 0.168362 0.443985Q0.223026 0.362175 0.2926 0.2926Q0.362175 0.223026 0.443985 0.168362Q0.525796 0.113698 0.616699 0.0760443Q0.707602 0.038391 0.804105 0.0191955Q0.900607 -1.83583e-13 0.999 -1.83583e-13Z" transform="translate(22.54 27.451853)" id="Rectangle-18" fill="#E3E7ED" fill-rule="evenodd" stroke="none" />
      <path d="M0.999 0L60.181 0Q60.2794 0 60.3759 0.0191955Q60.4724 0.038391 60.5633 0.0760443Q60.6542 0.113698 60.736 0.168362Q60.8178 0.223026 60.8874 0.2926Q60.957 0.362175 61.0116 0.443985Q61.0663 0.525796 61.1039 0.616699Q61.1416 0.707602 61.1608 0.804105Q61.18 0.900607 61.18 0.999L61.18 3.84544Q61.18 3.94384 61.1608 4.04034Q61.1416 4.13684 61.1039 4.22774Q61.0663 4.31865 61.0116 4.40046Q60.957 4.48227 60.8874 4.55184Q60.8178 4.62142 60.736 4.67608Q60.6542 4.73075 60.5633 4.7684Q60.4724 4.80605 60.3759 4.82525Q60.2794 4.84444 60.181 4.84444L0.999 4.84444Q0.900607 4.84444 0.804105 4.82525Q0.707602 4.80605 0.616699 4.7684Q0.525796 4.73075 0.443985 4.67608Q0.362175 4.62142 0.2926 4.55184Q0.223026 4.48227 0.168362 4.40046Q0.113698 4.31865 0.0760443 4.22774Q0.038391 4.13684 0.0191955 4.04034Q0 3.94384 0 3.84544L0 0.999Q0 0.900607 0.0191955 0.804105Q0.038391 0.707602 0.0760443 0.616699Q0.113698 0.525796 0.168362 0.443985Q0.223026 0.362175 0.2926 0.2926Q0.362175 0.223026 0.443985 0.168362Q0.525796 0.113698 0.616699 0.0760443Q0.707602 0.038391 0.804105 0.0191955Q0.900607 0 0.999 0Z" transform="translate(22.54 100.118515)" id="Rectangle-18-Copy-2" fill="#E3E7ED" fill-rule="evenodd" stroke="none" />
      <path d="M0.999 -1.83583e-13L92.381 -1.83583e-13Q92.4794 -1.83583e-13 92.5759 0.0191955Q92.6724 0.038391 92.7633 0.0760443Q92.8542 0.113698 92.936 0.168362Q93.0178 0.223026 93.0874 0.2926Q93.157 0.362175 93.2116 0.443985Q93.2663 0.525796 93.3039 0.616699Q93.3416 0.707602 93.3608 0.804105Q93.38 0.900607 93.38 0.999L93.38 3.84544Q93.38 3.94384 93.3608 4.04034Q93.3416 4.13684 93.3039 4.22774Q93.2663 4.31865 93.2116 4.40046Q93.157 4.48227 93.0874 4.55184Q93.0178 4.62142 92.936 4.67608Q92.8542 4.73075 92.7633 4.7684Q92.6724 4.80605 92.5759 4.82525Q92.4794 4.84444 92.381 4.84444L0.999 4.84444Q0.900607 4.84444 0.804105 4.82525Q0.707602 4.80605 0.616699 4.7684Q0.525796 4.73075 0.443985 4.67608Q0.362175 4.62142 0.2926 4.55184Q0.223026 4.48227 0.168362 4.40046Q0.113698 4.31865 0.0760443 4.22774Q0.038391 4.13684 0.0191955 4.04034Q-5.49107e-13 3.94384 -5.49107e-13 3.84544L-5.49107e-13 0.999Q-5.49107e-13 0.900607 0.0191955 0.804105Q0.038391 0.707602 0.0760443 0.616699Q0.113698 0.525796 0.168362 0.443985Q0.223026 0.362175 0.2926 0.2926Q0.362175 0.223026 0.443985 0.168362Q0.525796 0.113698 0.616699 0.0760443Q0.707602 0.038391 0.804105 0.0191955Q0.900607 -1.83583e-13 0.999 -1.83583e-13Z" transform="translate(22.54 38.755554)" id="Rectangle-18-Copy" fill="#F5F6F8" fill-rule="evenodd" stroke="none" />
      <path d="M0.999 -1.83583e-13L92.381 -1.83583e-13Q92.4794 -1.83583e-13 92.5759 0.0191955Q92.6724 0.038391 92.7633 0.0760443Q92.8542 0.113698 92.936 0.168362Q93.0178 0.223026 93.0874 0.2926Q93.157 0.362175 93.2116 0.443985Q93.2663 0.525796 93.3039 0.616699Q93.3416 0.707602 93.3608 0.804105Q93.38 0.900607 93.38 0.999L93.38 3.84544Q93.38 3.94384 93.3608 4.04034Q93.3416 4.13684 93.3039 4.22774Q93.2663 4.31865 93.2116 4.40046Q93.157 4.48227 93.0874 4.55184Q93.0178 4.62142 92.936 4.67608Q92.8542 4.73075 92.7633 4.7684Q92.6724 4.80605 92.5759 4.82525Q92.4794 4.84444 92.381 4.84444L0.999 4.84444Q0.900607 4.84444 0.804105 4.82525Q0.707602 4.80605 0.616699 4.7684Q0.525796 4.73075 0.443985 4.67608Q0.362175 4.62142 0.2926 4.55184Q0.223026 4.48227 0.168362 4.40046Q0.113698 4.31865 0.0760443 4.22774Q0.038391 4.13684 0.0191955 4.04034Q0 3.94384 0 3.84544L0 0.999Q0 0.900607 0.0191955 0.804105Q0.038391 0.707602 0.0760443 0.616699Q0.113698 0.525796 0.168362 0.443985Q0.223026 0.362175 0.2926 0.2926Q0.362175 0.223026 0.443985 0.168362Q0.525796 0.113698 0.616699 0.0760443Q0.707602 0.038391 0.804105 0.0191955Q0.900607 -1.83583e-13 0.999 -1.83583e-13Z" transform="translate(22.54 111.422226)" id="Rectangle-18-Copy-3" fill="#F5F6F8" fill-rule="evenodd" stroke="none" />
      <path d="M0.999 0L92.381 0Q92.4794 0 92.5759 0.0191955Q92.6724 0.038391 92.7633 0.0760443Q92.8542 0.113698 92.936 0.168362Q93.0178 0.223026 93.0874 0.2926Q93.157 0.362175 93.2116 0.443985Q93.2663 0.525796 93.3039 0.616699Q93.3416 0.707602 93.3608 0.804105Q93.38 0.900607 93.38 0.999L93.38 3.84544Q93.38 3.94384 93.3608 4.04034Q93.3416 4.13684 93.3039 4.22774Q93.2663 4.31865 93.2116 4.40046Q93.157 4.48227 93.0874 4.55184Q93.0178 4.62142 92.936 4.67608Q92.8542 4.73075 92.7633 4.7684Q92.6724 4.80605 92.5759 4.82525Q92.4794 4.84444 92.381 4.84444L0.999 4.84444Q0.900607 4.84444 0.804105 4.82525Q0.707602 4.80605 0.616699 4.7684Q0.525796 4.73075 0.443985 4.67608Q0.362175 4.62142 0.2926 4.55184Q0.223026 4.48227 0.168362 4.40046Q0.113698 4.31865 0.0760443 4.22774Q0.038391 4.13684 0.0191955 4.04034Q0 3.94384 0 3.84544L0 0.999Q0 0.900607 0.0191955 0.804105Q0.038391 0.707602 0.0760443 0.616699Q0.113698 0.525796 0.168362 0.443985Q0.223026 0.362175 0.2926 0.2926Q0.362175 0.223026 0.443985 0.168362Q0.525796 0.113698 0.616699 0.0760443Q0.707602 0.038391 0.804105 0.0191955Q0.900607 0 0.999 0Z" transform="translate(22.54 172.78519)" id="Rectangle-18-Copy-5" fill="#E3E7ED" fill-rule="evenodd" stroke="none" />
      <path d="M0.999 0L77.891 0Q77.9894 0 78.0859 0.0191955Q78.1824 0.038391 78.2733 0.0760443Q78.3642 0.113698 78.446 0.168362Q78.5278 0.223026 78.5974 0.2926Q78.667 0.362175 78.7216 0.443985Q78.7763 0.525796 78.8139 0.616699Q78.8516 0.707602 78.8708 0.804105Q78.89 0.900607 78.89 0.999L78.89 3.84544Q78.89 3.94384 78.8708 4.04034Q78.8516 4.13684 78.8139 4.22774Q78.7763 4.31865 78.7216 4.40046Q78.667 4.48227 78.5974 4.55184Q78.5278 4.62142 78.446 4.67608Q78.3642 4.73075 78.2733 4.7684Q78.1824 4.80605 78.0859 4.82525Q77.9894 4.84444 77.891 4.84444L0.999 4.84444Q0.900607 4.84444 0.804105 4.82525Q0.707602 4.80605 0.616699 4.7684Q0.525796 4.73075 0.443985 4.67608Q0.362175 4.62142 0.2926 4.55184Q0.223026 4.48227 0.168362 4.40046Q0.113698 4.31865 0.0760443 4.22774Q0.038391 4.13684 0.0191955 4.04034Q0 3.94384 0 3.84544L0 0.999Q0 0.900607 0.0191955 0.804105Q0.038391 0.707602 0.0760443 0.616699Q0.113698 0.525796 0.168362 0.443985Q0.223026 0.362175 0.2926 0.2926Q0.362175 0.223026 0.443985 0.168362Q0.525796 0.113698 0.616699 0.0760443Q0.707602 0.038391 0.804105 0.0191955Q0.900607 0 0.999 0Z" transform="translate(22.54 184.08888)" id="Rectangle-18-Copy-4" fill="#F5F6F8" fill-rule="evenodd" stroke="none" />
      <path d="M0 0L318.78 0L318.78 3.22963L0 3.22963L0 0Z" transform="translate(1.61 69.437035)" id="Rectangle-19" fill="#F4F7FB" fill-rule="evenodd" stroke="none" />
      <path d="M0 0L318.78 0L318.78 3.22963L0 3.22963L0 0Z" transform="translate(1.61 142.1037)" id="Rectangle-19-Copy" fill="#F4F7FB" fill-rule="evenodd" stroke="none" />
      <path d="M0.999 -1.83583e-13L15.101 -1.83583e-13Q15.1994 -1.83583e-13 15.2959 0.0191955Q15.3924 0.038391 15.4833 0.0760443Q15.5742 0.113698 15.656 0.168362Q15.7378 0.223026 15.8074 0.2926Q15.877 0.362175 15.9316 0.443985Q15.9863 0.525796 16.024 0.616699Q16.0616 0.707602 16.0808 0.804105Q16.1 0.900607 16.1 0.999L16.1 3.84544Q16.1 3.94384 16.0808 4.04034Q16.0616 4.13684 16.024 4.22774Q15.9863 4.31865 15.9316 4.40046Q15.877 4.48227 15.8074 4.55184Q15.7378 4.62142 15.656 4.67608Q15.5742 4.73075 15.4833 4.7684Q15.3924 4.80605 15.2959 4.82525Q15.1994 4.84444 15.101 4.84444L0.999 4.84444Q0.900607 4.84444 0.804105 4.82525Q0.707602 4.80605 0.616699 4.7684Q0.525796 4.73075 0.443985 4.67608Q0.362175 4.62142 0.2926 4.55184Q0.223026 4.48227 0.168362 4.40046Q0.113698 4.31865 0.0760443 4.22774Q0.038391 4.13684 0.0191955 4.04034Q-3.66072e-13 3.94384 -3.66072e-13 3.84544L-3.66072e-13 0.999Q-3.66072e-13 0.900607 0.0191955 0.804105Q0.038391 0.707602 0.0760443 0.616699Q0.113698 0.525796 0.168362 0.443985Q0.223026 0.362175 0.2926 0.2926Q0.362175 0.223026 0.443985 0.168362Q0.525796 0.113698 0.616699 0.0760443Q0.707602 0.038391 0.804105 0.0191955Q0.900607 -1.83583e-13 0.999 -1.83583e-13L0.999 -1.83583e-13Z" transform="translate(281.75 32.296295)" id="Rectangle-20" fill="#80D0EF" fill-rule="evenodd" stroke="none" />
      <path d="M0.999 0L15.101 0Q15.1994 0 15.2959 0.0191955Q15.3924 0.038391 15.4833 0.0760443Q15.5742 0.113698 15.656 0.168362Q15.7378 0.223026 15.8074 0.2926Q15.877 0.362175 15.9316 0.443985Q15.9863 0.525796 16.024 0.616699Q16.0616 0.707602 16.0808 0.804105Q16.1 0.900607 16.1 0.999L16.1 3.84544Q16.1 3.94384 16.0808 4.04034Q16.0616 4.13684 16.024 4.22774Q15.9863 4.31865 15.9316 4.40046Q15.877 4.48227 15.8074 4.55184Q15.7378 4.62142 15.656 4.67608Q15.5742 4.73075 15.4833 4.7684Q15.3924 4.80605 15.2959 4.82525Q15.1994 4.84444 15.101 4.84444L0.999 4.84444Q0.900607 4.84444 0.804105 4.82525Q0.707602 4.80605 0.616699 4.7684Q0.525796 4.73075 0.443985 4.67608Q0.362175 4.62142 0.2926 4.55184Q0.223026 4.48227 0.168362 4.40046Q0.113698 4.31865 0.0760443 4.22774Q0.038391 4.13684 0.0191955 4.04034Q-1.83036e-13 3.94384 -1.83036e-13 3.84544L-1.83036e-13 0.999Q-1.83036e-13 0.900607 0.0191955 0.804105Q0.038391 0.707602 0.0760443 0.616699Q0.113698 0.525796 0.168362 0.443985Q0.223026 0.362175 0.2926 0.2926Q0.362175 0.223026 0.443985 0.168362Q0.525796 0.113698 0.616699 0.0760443Q0.707602 0.038391 0.804105 0.0191955Q0.900607 0 0.999 0L0.999 0Z" transform="translate(281.75 104.96296)" id="Rectangle-20-Copy" fill="#80D0EF" fill-rule="evenodd" stroke="none" />
      <path d="M0.999 -1.83583e-13L15.101 -1.83583e-13Q15.1994 -1.83583e-13 15.2959 0.0191955Q15.3924 0.038391 15.4833 0.0760443Q15.5742 0.113698 15.656 0.168362Q15.7378 0.223026 15.8074 0.2926Q15.877 0.362175 15.9316 0.443985Q15.9863 0.525796 16.024 0.616699Q16.0616 0.707602 16.0808 0.804105Q16.1 0.900607 16.1 0.999L16.1 3.84544Q16.1 3.94384 16.0808 4.04034Q16.0616 4.13684 16.024 4.22774Q15.9863 4.31865 15.9316 4.40046Q15.877 4.48227 15.8074 4.55184Q15.7378 4.62142 15.656 4.67608Q15.5742 4.73075 15.4833 4.7684Q15.3924 4.80605 15.2959 4.82525Q15.1994 4.84444 15.101 4.84444L0.999 4.84444Q0.900607 4.84444 0.804105 4.82525Q0.707602 4.80605 0.616699 4.7684Q0.525796 4.73075 0.443985 4.67608Q0.362175 4.62142 0.2926 4.55184Q0.223026 4.48227 0.168362 4.40046Q0.113698 4.31865 0.0760443 4.22774Q0.038391 4.13684 0.0191955 4.04034Q-1.83036e-13 3.94384 -1.83036e-13 3.84544L-1.83036e-13 0.999Q-1.83036e-13 0.900607 0.0191955 0.804105Q0.038391 0.707602 0.0760443 0.616699Q0.113698 0.525796 0.168362 0.443985Q0.223026 0.362175 0.2926 0.2926Q0.362175 0.223026 0.443985 0.168362Q0.525796 0.113698 0.616699 0.0760443Q0.707602 0.038391 0.804105 0.0191955Q0.900607 -1.83583e-13 0.999 -1.83583e-13L0.999 -1.83583e-13Z" transform="translate(281.75 177.62962)" id="Rectangle-20-Copy-2" fill="#80D0EF" fill-rule="evenodd" stroke="none" />
    </g>
    <g id="Fake-Content-Right" transform="matrix(1 2.1830324E-09 -2.1830324E-09 1 437.00464 290.1565)">
      <path d="M0.999 0L110.311 0Q110.409 0 110.506 0.0191955Q110.602 0.038391 110.693 0.0760443Q110.784 0.113698 110.866 0.168362Q110.948 0.223026 111.017 0.2926Q111.087 0.362175 111.141 0.443985Q111.196 0.525796 111.234 0.616699Q111.271 0.707602 111.291 0.804105Q111.31 0.900607 111.31 0.999L111.31 3.83258Q111.31 3.93097 111.291 4.02747Q111.271 4.12398 111.234 4.21488Q111.196 4.30578 111.141 4.38759Q111.087 4.4694 111.017 4.53898Q110.948 4.60855 110.866 4.66322Q110.784 4.71788 110.693 4.75553Q110.602 4.79319 110.506 4.81238Q110.409 4.83158 110.311 4.83158L0.999 4.83158Q0.900607 4.83158 0.804105 4.81238Q0.707602 4.79319 0.616699 4.75553Q0.525796 4.71788 0.443985 4.66322Q0.362175 4.60855 0.2926 4.53898Q0.223026 4.4694 0.168362 4.38759Q0.113698 4.30578 0.0760443 4.21488Q0.038391 4.12398 0.0191955 4.02747Q0 3.93097 0 3.83258L0 0.999Q0 0.900607 0.0191955 0.804105Q0.038391 0.707602 0.0760443 0.616699Q0.113698 0.525796 0.168362 0.443985Q0.223026 0.362175 0.2926 0.2926Q0.362175 0.223026 0.443985 0.168362Q0.525796 0.113698 0.616699 0.0760443Q0.707602 0.038391 0.804105 0.0191955Q0.900607 0 0.999 0Z" transform="translate(-9.094947E-13 6.4421053)" id="Rectangle-21" fill="#E3E7ED" fill-rule="evenodd" stroke="none" />
      <path d="M0.999 -1.83096e-13L61.9152 -1.83096e-13Q62.0136 -1.83096e-13 62.1101 0.0191955Q62.2066 0.038391 62.2975 0.0760443Q62.3884 0.113698 62.4702 0.168362Q62.552 0.223026 62.6216 0.2926Q62.6912 0.362175 62.7458 0.443985Q62.8005 0.525796 62.8381 0.616699Q62.8758 0.707602 62.895 0.804105Q62.9142 0.900607 62.9142 0.999L62.9142 3.83258Q62.9142 3.93097 62.895 4.02747Q62.8758 4.12398 62.8381 4.21488Q62.8005 4.30578 62.7458 4.38759Q62.6912 4.4694 62.6216 4.53898Q62.552 4.60855 62.4702 4.66322Q62.3884 4.71788 62.2975 4.75553Q62.2066 4.79319 62.1101 4.81238Q62.0136 4.83158 61.9152 4.83158L0.999 4.83158Q0.900607 4.83158 0.804105 4.81238Q0.707602 4.79319 0.616699 4.75553Q0.525796 4.71788 0.443985 4.66322Q0.362175 4.60855 0.2926 4.53898Q0.223026 4.4694 0.168362 4.38759Q0.113698 4.30578 0.0760443 4.21488Q0.038391 4.12398 0.0191955 4.02747Q-1.83398e-13 3.93097 -1.83398e-13 3.83258L-1.83398e-13 0.999Q-1.83398e-13 0.900607 0.0191955 0.804105Q0.038391 0.707602 0.0760443 0.616699Q0.113698 0.525796 0.168362 0.443985Q0.223026 0.362175 0.2926 0.2926Q0.362175 0.223026 0.443985 0.168362Q0.525796 0.113698 0.616699 0.0760443Q0.707602 0.038391 0.804105 0.0191955Q0.900607 -1.83096e-13 0.999 -1.83096e-13Z" transform="translate(-3.4106051E-12 17.71579)" id="Rectangle-21-Copy" fill="#EFF2F8" fill-rule="evenodd" stroke="none" />
      <path d="M0.999 -1.83096e-13L90.9525 -1.83096e-13Q91.0509 -1.83096e-13 91.1474 0.0191955Q91.2439 0.038391 91.3348 0.0760443Q91.4257 0.113698 91.5075 0.168362Q91.5893 0.223026 91.6589 0.2926Q91.7285 0.362175 91.7831 0.443985Q91.8378 0.525796 91.8755 0.616699Q91.9131 0.707602 91.9323 0.804105Q91.9515 0.900607 91.9515 0.999L91.9515 3.83258Q91.9515 3.93097 91.9323 4.02747Q91.9131 4.12398 91.8755 4.21488Q91.8378 4.30578 91.7831 4.38759Q91.7285 4.4694 91.6589 4.53898Q91.5893 4.60855 91.5075 4.66322Q91.4257 4.71788 91.3348 4.75553Q91.2439 4.79319 91.1474 4.81238Q91.0509 4.83158 90.9525 4.83158L0.999 4.83158Q0.900607 4.83158 0.804105 4.81238Q0.707602 4.79319 0.616699 4.75553Q0.525796 4.71788 0.443985 4.66322Q0.362175 4.60855 0.2926 4.53898Q0.223026 4.4694 0.168362 4.38759Q0.113698 4.30578 0.0760443 4.21488Q0.038391 4.12398 0.0191955 4.02747Q0 3.93097 0 3.83258L0 0.999Q0 0.900607 0.0191955 0.804105Q0.038391 0.707602 0.0760443 0.616699Q0.113698 0.525796 0.168362 0.443985Q0.223026 0.362175 0.2926 0.2926Q0.362175 0.223026 0.443985 0.168362Q0.525796 0.113698 0.616699 0.0760443Q0.707602 0.038391 0.804105 0.0191955Q0.900607 -1.83096e-13 0.999 -1.83096e-13L0.999 -1.83096e-13Z" transform="translate(16.131844 80.52631)" id="Rectangle-21-Copy-3" fill="#EFF2F8" fill-rule="evenodd" stroke="none" />
      <path d="M0.999 -3.66191e-13L71.5943 -3.66191e-13Q71.6927 -3.66191e-13 71.7892 0.0191955Q71.8857 0.038391 71.9766 0.0760443Q72.0675 0.113698 72.1493 0.168362Q72.2311 0.223026 72.3007 0.2926Q72.3703 0.362175 72.4249 0.443985Q72.4796 0.525796 72.5172 0.616699Q72.5549 0.707602 72.5741 0.804105Q72.5933 0.900607 72.5933 0.999L72.5933 3.83258Q72.5933 3.93097 72.5741 4.02747Q72.5549 4.12398 72.5172 4.21488Q72.4796 4.30578 72.4249 4.38759Q72.3703 4.4694 72.3007 4.53898Q72.2311 4.60855 72.1493 4.66322Q72.0675 4.71788 71.9766 4.75553Q71.8857 4.79319 71.7892 4.81238Q71.6927 4.83158 71.5943 4.83158L0.999 4.83158Q0.900607 4.83158 0.804105 4.81238Q0.707602 4.79319 0.616699 4.75553Q0.525796 4.71788 0.443985 4.66322Q0.362175 4.60855 0.2926 4.53898Q0.223026 4.4694 0.168362 4.38759Q0.113698 4.30578 0.0760443 4.21488Q0.038391 4.12398 0.0191955 4.02747Q-1.83398e-13 3.93097 -1.83398e-13 3.83258L-1.83398e-13 0.999Q-1.83398e-13 0.900607 0.0191955 0.804105Q0.038391 0.707602 0.0760443 0.616699Q0.113698 0.525796 0.168362 0.443985Q0.223026 0.362175 0.2926 0.2926Q0.362175 0.223026 0.443985 0.168362Q0.525796 0.113698 0.616699 0.0760443Q0.707602 0.038391 0.804105 0.0191955Q0.900607 -3.66191e-13 0.999 -3.66191e-13Z" transform="translate(16.131844 96.63158)" id="Rectangle-21-Copy-4" fill="#EFF2F8" fill-rule="evenodd" stroke="none" />
      <path d="M0.999 -1.83096e-13L78.047 -1.83096e-13Q78.1454 -1.83096e-13 78.2419 0.0191955Q78.3384 0.038391 78.4293 0.0760443Q78.5202 0.113698 78.602 0.168362Q78.6839 0.223026 78.7534 0.2926Q78.823 0.362175 78.8777 0.443985Q78.9323 0.525796 78.97 0.616699Q79.0076 0.707602 79.0268 0.804105Q79.046 0.900607 79.046 0.999L79.046 3.83258Q79.046 3.93097 79.0268 4.02747Q79.0076 4.12398 78.97 4.21488Q78.9323 4.30578 78.8777 4.38759Q78.823 4.4694 78.7534 4.53898Q78.6839 4.60855 78.602 4.66322Q78.5202 4.71788 78.4293 4.75553Q78.3384 4.79319 78.2419 4.81238Q78.1454 4.83158 78.047 4.83158L0.999 4.83158Q0.900607 4.83158 0.804105 4.81238Q0.707602 4.79319 0.616699 4.75553Q0.525796 4.71788 0.443985 4.66322Q0.362175 4.60855 0.2926 4.53898Q0.223026 4.4694 0.168362 4.38759Q0.113698 4.30578 0.0760443 4.21488Q0.038391 4.12398 0.0191955 4.02747Q-1.83398e-13 3.93097 -1.83398e-13 3.83258L-1.83398e-13 0.999Q-1.83398e-13 0.900607 0.0191955 0.804105Q0.038391 0.707602 0.0760443 0.616699Q0.113698 0.525796 0.168362 0.443985Q0.223026 0.362175 0.2926 0.2926Q0.362175 0.223026 0.443985 0.168362Q0.525796 0.113698 0.616699 0.0760443Q0.707602 0.038391 0.804105 0.0191955Q0.900607 -1.83096e-13 0.999 -1.83096e-13Z" transform="translate(16.131844 114.34737)" id="Rectangle-21-Copy-5" fill="#EFF2F8" fill-rule="evenodd" stroke="none" />
      <path d="M0.999 -1.83096e-13L61.9152 -1.83096e-13Q62.0136 -1.83096e-13 62.1101 0.0191955Q62.2066 0.038391 62.2975 0.0760443Q62.3884 0.113698 62.4702 0.168362Q62.552 0.223026 62.6216 0.2926Q62.6912 0.362175 62.7458 0.443985Q62.8005 0.525796 62.8381 0.616699Q62.8758 0.707602 62.895 0.804105Q62.9142 0.900607 62.9142 0.999L62.9142 3.83258Q62.9142 3.93097 62.895 4.02747Q62.8758 4.12398 62.8381 4.21488Q62.8005 4.30578 62.7458 4.38759Q62.6912 4.4694 62.6216 4.53898Q62.552 4.60855 62.4702 4.66322Q62.3884 4.71788 62.2975 4.75553Q62.2066 4.79319 62.1101 4.81238Q62.0136 4.83158 61.9152 4.83158L0.999 4.83158Q0.900607 4.83158 0.804105 4.81238Q0.707602 4.79319 0.616699 4.75553Q0.525796 4.71788 0.443985 4.66322Q0.362175 4.60855 0.2926 4.53898Q0.223026 4.4694 0.168362 4.38759Q0.113698 4.30578 0.0760443 4.21488Q0.038391 4.12398 0.0191955 4.02747Q1.83398e-13 3.93097 1.83398e-13 3.83258L1.83398e-13 0.999Q1.83398e-13 0.900607 0.0191955 0.804105Q0.038391 0.707602 0.0760443 0.616699Q0.113698 0.525796 0.168362 0.443985Q0.223026 0.362175 0.2926 0.2926Q0.362175 0.223026 0.443985 0.168362Q0.525796 0.113698 0.616699 0.0760443Q0.707602 0.038391 0.804105 0.0191955Q0.900607 -1.83096e-13 0.999 -1.83096e-13Z" transform="translate(16.131844 130.45264)" id="Rectangle-21-Copy-6" fill="#EFF2F8" fill-rule="evenodd" stroke="none" />
      <path d="M0.999 0L78.047 0Q78.1454 0 78.2419 0.0191955Q78.3384 0.038391 78.4293 0.0760443Q78.5202 0.113698 78.602 0.168362Q78.6839 0.223026 78.7534 0.2926Q78.823 0.362175 78.8777 0.443985Q78.9323 0.525796 78.97 0.616699Q79.0076 0.707602 79.0268 0.804105Q79.046 0.900607 79.046 0.999L79.046 3.83258Q79.046 3.93097 79.0268 4.02747Q79.0076 4.12398 78.97 4.21488Q78.9323 4.30578 78.8777 4.38759Q78.823 4.4694 78.7534 4.53898Q78.6839 4.60855 78.602 4.66322Q78.5202 4.71788 78.4293 4.75553Q78.3384 4.79319 78.2419 4.81238Q78.1454 4.83158 78.047 4.83158L0.999 4.83158Q0.900607 4.83158 0.804105 4.81238Q0.707602 4.79319 0.616699 4.75553Q0.525796 4.71788 0.443985 4.66322Q0.362175 4.60855 0.2926 4.53898Q0.223026 4.4694 0.168362 4.38759Q0.113698 4.30578 0.0760443 4.21488Q0.038391 4.12398 0.0191955 4.02747Q0 3.93097 0 3.83258L0 0.999Q0 0.900607 0.0191955 0.804105Q0.038391 0.707602 0.0760443 0.616699Q0.113698 0.525796 0.168362 0.443985Q0.223026 0.362175 0.2926 0.2926Q0.362175 0.223026 0.443985 0.168362Q0.525796 0.113698 0.616699 0.0760443Q0.707602 0.038391 0.804105 0.0191955Q0.900607 0 0.999 0Z" transform="translate(16.131844 148.16843)" id="Rectangle-21-Copy-7" fill="#EFF2F8" fill-rule="evenodd" stroke="none" />
      <path d="M0.999 -1.83096e-13L282.921 -1.83096e-13Q283.02 -1.83096e-13 283.116 0.0191955Q283.213 0.038391 283.304 0.0760443Q283.395 0.113698 283.476 0.168362Q283.558 0.223026 283.628 0.2926Q283.697 0.362175 283.752 0.443985Q283.807 0.525796 283.844 0.616699Q283.882 0.707602 283.901 0.804105Q283.92 0.900607 283.92 0.999L283.92 2.22205Q283.92 2.32045 283.901 2.41695Q283.882 2.51345 283.844 2.60435Q283.807 2.69526 283.752 2.77707Q283.697 2.85888 283.628 2.92845Q283.558 2.99803 283.476 3.05269Q283.395 3.10735 283.304 3.14501Q283.213 3.18266 283.116 3.20186Q283.02 3.22105 282.921 3.22105L0.999 3.22105Q0.900607 3.22105 0.804105 3.20186Q0.707602 3.18266 0.616699 3.14501Q0.525796 3.10735 0.443985 3.05269Q0.362175 2.99803 0.2926 2.92845Q0.223026 2.85888 0.168362 2.77707Q0.113698 2.69526 0.0760443 2.60435Q0.038391 2.51345 0.0191955 2.41695Q-1.83398e-13 2.32045 -1.83398e-13 2.22205L-1.83398e-13 0.999Q-1.83398e-13 0.900607 0.0191955 0.804105Q0.038391 0.707602 0.0760443 0.616699Q0.113698 0.525796 0.168362 0.443985Q0.223026 0.362175 0.2926 0.2926Q0.362175 0.223026 0.443985 0.168362Q0.525796 0.113698 0.616699 0.0760443Q0.707602 0.038391 0.804105 0.0191955Q0.900607 -1.83096e-13 0.999 -1.83096e-13Z" transform="translate(-2.728484E-12 49.926315)" id="Rectangle-21-Copy-2" fill="#EFF2F8" fill-rule="evenodd" stroke="none" />
      <path d="M2.41978 4.83158C3.75618 4.83158 4.83955 3.74999 4.83955 2.41579C4.83955 1.08159 3.75618 -1.83096e-13 2.41978 -1.83096e-13C1.08337 -1.83096e-13 -1.83398e-13 1.08159 -1.83398e-13 2.41579C-1.83398e-13 3.74999 1.08337 4.83158 2.41978 4.83158Z" transform="translate(-9.094947E-13 80.52631)" id="Oval-5" fill="#DADFE6" fill-rule="evenodd" stroke="none" />
      <path d="M2.41978 4.83158C3.75618 4.83158 4.83955 3.74999 4.83955 2.41579C4.83955 1.08159 3.75618 -1.83096e-13 2.41978 -1.83096e-13C1.08337 -1.83096e-13 0 1.08159 0 2.41579C0 3.74999 1.08337 4.83158 2.41978 4.83158Z" transform="translate(-5.002221E-12 96.63158)" id="Oval-5-Copy" fill="#DADFE6" fill-rule="evenodd" stroke="none" />
      <path d="M2.41978 4.83158C3.75618 4.83158 4.83955 3.74999 4.83955 2.41579C4.83955 1.08159 3.75618 0 2.41978 0C1.08337 0 -3.66796e-13 1.08159 -3.66796e-13 2.41579C-3.66796e-13 3.74999 1.08337 4.83158 2.41978 4.83158Z" transform="translate(-1.1368684E-13 114.34737)" id="Oval-5-Copy-2" fill="#DADFE6" fill-rule="evenodd" stroke="none" />
      <path d="M2.41978 4.83158C3.75618 4.83158 4.83955 3.74999 4.83955 2.41579C4.83955 1.08159 3.75618 -1.83096e-13 2.41978 -1.83096e-13C1.08337 -1.83096e-13 0 1.08159 0 2.41579C0 3.74999 1.08337 4.83158 2.41978 4.83158Z" transform="translate(-3.1832315E-12 130.45264)" id="Oval-5-Copy-3" fill="#DADFE6" fill-rule="evenodd" stroke="none" />
      <path d="M2.41978 4.83158C3.75618 4.83158 4.83955 3.74999 4.83955 2.41579C4.83955 1.08159 3.75618 0 2.41978 0C1.08337 0 -3.66796e-13 1.08159 -3.66796e-13 2.41579C-3.66796e-13 3.74999 1.08337 4.83158 2.41978 4.83158Z" transform="translate(-3.9790393E-12 148.16843)" id="Oval-5-Copy-4" fill="#DADFE6" fill-rule="evenodd" stroke="none" />
      <g id="Group-11" transform="translate(172.61073 -1.1368684E-12)">
        <path d="M1.999 0L109.311 0Q109.409 0 109.507 0.00962573Q109.604 0.0192515 109.701 0.0384102Q109.797 0.057569 109.891 0.0860763Q109.985 0.114584 110.076 0.152165Q110.166 0.189746 110.253 0.236039Q110.34 0.282333 110.421 0.336892Q110.503 0.391452 110.579 0.453752Q110.655 0.516052 110.724 0.585494Q110.794 0.654935 110.856 0.730848Q110.918 0.806761 110.973 0.888415Q111.027 0.970069 111.074 1.05668Q111.12 1.14329 111.158 1.23402Q111.195 1.32474 111.224 1.41872Q111.252 1.5127 111.271 1.60901Q111.29 1.70533 111.3 1.80306Q111.31 1.9008 111.31 1.999L111.31 22.1589Q111.31 22.2571 111.3 22.3548Q111.29 22.4526 111.271 22.5489Q111.252 22.6452 111.224 22.7392Q111.195 22.8332 111.158 22.9239Q111.12 23.0146 111.074 23.1012Q111.027 23.1878 110.973 23.2695Q110.918 23.3511 110.856 23.427Q110.794 23.503 110.724 23.5724Q110.655 23.6418 110.579 23.7041Q110.503 23.7664 110.421 23.821Q110.34 23.8756 110.253 23.9219Q110.166 23.9681 110.076 24.0057Q109.985 24.0433 109.891 24.0718Q109.797 24.1003 109.701 24.1195Q109.604 24.1386 109.507 24.1483Q109.409 24.1579 109.311 24.1579L1.999 24.1579Q1.9008 24.1579 1.80306 24.1483Q1.70533 24.1386 1.60901 24.1195Q1.5127 24.1003 1.41872 24.0718Q1.32474 24.0433 1.23402 24.0057Q1.14329 23.9681 1.05668 23.9219Q0.970069 23.8756 0.888415 23.821Q0.806761 23.7664 0.730848 23.7041Q0.654935 23.6418 0.585494 23.5724Q0.516052 23.503 0.453752 23.427Q0.391452 23.3511 0.336892 23.2695Q0.282333 23.1878 0.236039 23.1012Q0.189746 23.0146 0.152165 22.9239Q0.114584 22.8331 0.0860763 22.7392Q0.057569 22.6452 0.0384102 22.5489Q0.0192515 22.4526 0.00962573 22.3548Q0 22.2571 0 22.1589L0 1.999Q0 1.9008 0.00962573 1.80306Q0.0192515 1.70533 0.0384102 1.60901Q0.057569 1.5127 0.0860763 1.41872Q0.114584 1.32474 0.152165 1.23402Q0.189746 1.14329 0.236039 1.05668Q0.282333 0.970069 0.336892 0.888415Q0.391452 0.806761 0.453752 0.730848Q0.516052 0.654935 0.585494 0.585494Q0.654935 0.516052 0.730848 0.453752Q0.806761 0.391452 0.888415 0.336892Q0.970069 0.282333 1.05668 0.236039Q1.14329 0.189746 1.23402 0.152165Q1.32474 0.114584 1.41872 0.0860763Q1.5127 0.057569 1.60901 0.0384102Q1.70533 0.0192515 1.80306 0.00962573Q1.9008 0 1.999 0L1.999 0Z" transform="matrix(1 0 0 1 -1.5916157E-12 -9.094947E-13)" id="Rectangle-22" fill="#00A1E0" fill-rule="evenodd" stroke="none" />
      </g>
    </g>
    <g id="Menu-Buttons" transform="matrix(1 2.1830324E-09 -2.1830324E-09 1 252.21094 512.22656)">
      <g id="Green-Button" transform="matrix(1 0 0 1 -3.410605E-13 -4.5474735E-13)">
        <path d="M12.0975 24.3C18.7787 24.3 24.1949 18.8603 24.1949 12.15C24.1949 5.43974 18.7787 -1.84173e-13 12.0975 -1.84173e-13C5.41622 -1.84173e-13 0 5.43974 0 12.15C0 18.8603 5.41622 24.3 12.0975 24.3Z" transform="matrix(1 0 0 1 -2.046363E-12 -2.046363E-12)" id="Oval-6" fill="#8AD358" fill-rule="evenodd" stroke="none" />
        <path d="M1.619 0L12.898 0Q12.9775 0 13.0566 0.00779593Q13.1358 0.0155919 13.2138 0.0311086Q13.2918 0.0466254 13.3679 0.0697136Q13.444 0.0928018 13.5175 0.123239Q13.591 0.153676 13.6611 0.191169Q13.7313 0.228663 13.7974 0.272851Q13.8636 0.317039 13.925 0.367496Q13.9865 0.417953 14.0428 0.474194Q14.099 0.530435 14.1495 0.591917Q14.1999 0.6534 14.2441 0.719532Q14.2883 0.785664 14.3258 0.855809Q14.3633 0.925953 14.3937 0.999435Q14.4241 1.07292 14.4472 1.14903Q14.4703 1.22514 14.4858 1.30315Q14.5014 1.38116 14.5092 1.46031Q14.517 1.53946 14.517 1.619L14.517 1.621Q14.517 1.70035 14.5092 1.77932Q14.5014 1.85828 14.486 1.93611Q14.4705 2.01395 14.4476 2.08989Q14.4246 2.16584 14.3943 2.23918Q14.364 2.31251 14.3267 2.38254Q14.2893 2.45256 14.2453 2.51859Q14.2014 2.58463 14.1511 2.64605Q14.1009 2.70747 14.0449 2.76368Q13.9889 2.81989 13.9276 2.87036Q13.8664 2.92082 13.8005 2.96506Q13.7347 3.0093 13.6648 3.04688Q13.5949 3.08446 13.5217 3.11503Q13.4485 3.1456 13.3726 3.16886Q13.2967 3.19213 13.219 3.20786Q13.1412 3.22359 13.0622 3.23164Q12.9833 3.23969 12.904 3.23999L12.904 10.538Q12.904 10.6172 12.8962 10.696Q12.8884 10.7748 12.873 10.8525Q12.8575 10.9302 12.8345 11.0059Q12.8116 11.0817 12.7813 11.1549Q12.7509 11.2281 12.7136 11.2979Q12.6763 11.3677 12.6323 11.4336Q12.5883 11.4994 12.5381 11.5606Q12.4878 11.6219 12.4318 11.6779Q12.3758 11.7339 12.3146 11.7841Q12.2534 11.8343 12.1875 11.8783Q12.1217 11.9223 12.0519 11.9597Q11.982 11.997 11.9088 12.0273Q11.8357 12.0576 11.7599 12.0806Q11.6841 12.1036 11.6064 12.119Q11.5288 12.1345 11.45 12.1422Q11.3712 12.15 11.292 12.15L11.29 12.15Q11.2108 12.15 11.132 12.1422Q11.0531 12.1345 10.9755 12.119Q10.8978 12.1036 10.822 12.0806Q10.7462 12.0576 10.6731 12.0273Q10.5999 11.997 10.5301 11.9597Q10.4602 11.9223 10.3944 11.8783Q10.3285 11.8343 10.2673 11.7841Q10.2061 11.7339 10.1501 11.6779Q10.0941 11.6219 10.0439 11.5606Q9.99363 11.4994 9.94964 11.4336Q9.90564 11.3677 9.86831 11.2979Q9.83098 11.2281 9.80067 11.1549Q9.77037 11.0817 9.74738 11.0059Q9.72439 10.9302 9.70894 10.8525Q9.69349 10.7748 9.68573 10.696Q9.67797 10.6172 9.67797 10.538L9.67797 3.24L4.83898 3.24L4.83898 10.538Q4.83898 10.6172 4.83122 10.696Q4.82346 10.7748 4.80801 10.8525Q4.79256 10.9302 4.76957 11.0059Q4.74658 11.0817 4.71628 11.1549Q4.68597 11.2281 4.64864 11.2979Q4.61131 11.3677 4.56731 11.4336Q4.52332 11.4994 4.47308 11.5606Q4.42284 11.6219 4.36684 11.6779Q4.31084 11.7339 4.24963 11.7841Q4.18841 11.8343 4.12257 11.8783Q4.05672 11.9223 3.98688 11.9597Q3.91704 11.997 3.84387 12.0273Q3.77071 12.0576 3.69493 12.0806Q3.61914 12.1036 3.54147 12.119Q3.4638 12.1345 3.38499 12.1422Q3.30618 12.15 3.22699 12.15L3.22499 12.15Q3.1458 12.15 3.06699 12.1422Q2.98818 12.1345 2.9105 12.119Q2.83283 12.1036 2.75705 12.0806Q2.68127 12.0576 2.60811 12.0273Q2.53494 11.997 2.4651 11.9597Q2.39526 11.9223 2.32941 11.8783Q2.26357 11.8343 2.20235 11.7841Q2.14113 11.7339 2.08514 11.6779Q2.02914 11.6219 1.9789 11.5606Q1.92866 11.4994 1.88466 11.4336Q1.84067 11.3677 1.80334 11.2979Q1.76601 11.2281 1.7357 11.1549Q1.70539 11.0817 1.68241 11.0059Q1.65942 10.9302 1.64397 10.8525Q1.62852 10.7748 1.62076 10.696Q1.61299 10.6172 1.61299 10.538L1.61299 3.23999Q1.53365 3.23969 1.45471 3.23164Q1.37577 3.22359 1.298 3.20786Q1.22022 3.19213 1.14436 3.16886Q1.0685 3.1456 0.995277 3.11503Q0.922053 3.08446 0.85217 3.04688Q0.782287 3.0093 0.716413 2.96506Q0.65054 2.92082 0.589308 2.87036Q0.528076 2.81989 0.472073 2.76368Q0.416069 2.70747 0.365831 2.64605Q0.315593 2.58463 0.271601 2.5186Q0.227609 2.45256 0.190286 2.38254Q0.152962 2.31251 0.122665 2.23918Q0.0923679 2.16584 0.0693871 2.08989Q0.0464064 2.01395 0.0309624 1.93612Q0.0155184 1.85828 0.00775918 1.77932Q0 1.70035 0 1.621L0 1.619Q0 1.53946 0.00779593 1.46031Q0.0155919 1.38116 0.0311086 1.30315Q0.0466254 1.22514 0.0697136 1.14903Q0.0928018 1.07292 0.123239 0.999435Q0.153676 0.925953 0.191169 0.855809Q0.228663 0.785664 0.272851 0.719532Q0.317039 0.6534 0.367496 0.591917Q0.417953 0.530435 0.474194 0.474194Q0.530435 0.417953 0.591917 0.367496Q0.6534 0.317039 0.719532 0.272851Q0.785664 0.228663 0.855809 0.191169Q0.925953 0.153676 0.999435 0.123239Q1.07292 0.0928018 1.14903 0.0697136Q1.22514 0.0466254 1.30315 0.0311086Q1.38116 0.0155919 1.46031 0.00779593Q1.53946 0 1.619 0ZM5.64548 5.264Q5.64548 5.22421 5.65324 5.18518Q5.66101 5.14616 5.67623 5.1094Q5.69146 5.07263 5.71357 5.03955Q5.73567 5.00646 5.76381 4.97833Q5.79194 4.95019 5.82503 4.92809Q5.85811 4.90598 5.89488 4.89075Q5.93164 4.87553 5.97066 4.86776Q6.00969 4.86 6.04948 4.86L8.46747 4.86Q8.50726 4.86 8.54629 4.86776Q8.58531 4.87553 8.62207 4.89075Q8.65883 4.90598 8.69192 4.92809Q8.725 4.95019 8.75314 4.97833Q8.78128 5.00646 8.80338 5.03955Q8.82549 5.07263 8.84072 5.1094Q8.85594 5.14616 8.86371 5.18518Q8.87147 5.22421 8.87147 5.264L8.87147 5.266Q8.87147 5.30579 8.86371 5.34482Q8.85594 5.38384 8.84072 5.4206Q8.82549 5.45736 8.80338 5.49045Q8.78128 5.52353 8.75314 5.55167Q8.725 5.57981 8.69192 5.60191Q8.65884 5.62402 8.62207 5.63925Q8.58531 5.65447 8.54629 5.66224Q8.50726 5.67 8.46747 5.67L6.04948 5.67Q6.00969 5.67 5.97066 5.66224Q5.93164 5.65447 5.89488 5.63925Q5.85811 5.62402 5.82503 5.60191Q5.79195 5.57981 5.76381 5.55167Q5.73567 5.52353 5.71357 5.49045Q5.69146 5.45736 5.67623 5.4206Q5.66101 5.38384 5.65324 5.34482Q5.64548 5.30579 5.64548 5.266L5.64548 5.264Z" transform="translate(4.838984 6.48)" id="Combined-Shape" fill="#FFFFFF" fill-rule="evenodd" stroke="none" />
      </g>
      <g id="Blue-Chat-Button" transform="translate(70.97176 1.62)">
        <path d="M12.0975 24.3C18.7787 24.3 24.1949 18.8603 24.1949 12.15C24.1949 5.43974 18.7787 -1.84173e-13 12.0975 -1.84173e-13C5.41622 -1.84173e-13 -1.83376e-13 5.43974 -1.83376e-13 12.15C-1.83376e-13 18.8603 5.41622 24.3 12.0975 24.3Z" transform="matrix(1 0 0 1 -1.9326762E-12 -2.16005E-12)" id="Oval-6" fill="#50C8E3" fill-rule="evenodd" stroke="none" />
        <path d="M7.06596 9.69828C10.3413 9.46538 12.904 7.38812 12.904 4.86C12.904 2.1759 10.0153 0 6.45198 0C2.88865 0 0 2.1759 0 4.86C0 6.96397 1.77491 8.75568 4.25838 9.4319L3.22599 11.9816C4.6577 11.8701 6.08874 10.6997 7.06596 9.69828Z" transform="translate(5.806741 6.48)" id="Combined-Shape" fill="#FFFFFF" fill-rule="evenodd" stroke="none" />
      </g>
      <g id="Brown-Paper-Button" transform="translate(143.55652 -7.9580786E-13)">
        <path d="M12.0975 24.3C18.7787 24.3 24.1949 18.8603 24.1949 12.15C24.1949 5.43974 18.7787 -1.84173e-13 12.0975 -1.84173e-13C5.41622 -1.84173e-13 -3.66753e-13 5.43974 -3.66753e-13 12.15C-3.66753e-13 18.8603 5.41622 24.3 12.0975 24.3Z" transform="matrix(1 0 0 1 -2.728484E-12 -1.5916157E-12)" id="Oval-6" fill="#B8AC95" fill-rule="evenodd" stroke="none" />
        <g id="Paper" transform="translate(8.064973 6.48)">
          <path d="M-5.29953e-17 9.531L6.72502e-16 0.999Q6.80868e-16 0.900607 0.0191955 0.804105Q0.038391 0.707602 0.0760443 0.616699Q0.113698 0.525796 0.168362 0.443985Q0.223026 0.362175 0.2926 0.2926Q0.362175 0.223026 0.443985 0.168362Q0.525796 0.113698 0.616699 0.0760443Q0.707602 0.038391 0.804105 0.0191955Q0.900607 0 0.999 0L6.45198 0L8.06497 2.43L8.06497 9.531Q8.06497 9.62939 8.04578 9.72589Q8.02658 9.8224 7.98893 9.9133Q7.95127 10.0042 7.89661 10.086Q7.84195 10.1678 7.77237 10.2374Q7.7028 10.307 7.62099 10.3616Q7.53918 10.4163 7.44827 10.454Q7.35737 10.4916 7.26087 10.5108Q7.16437 10.53 7.06597 10.53L0.999 10.53Q0.900607 10.53 0.804105 10.5108Q0.707602 10.4916 0.616699 10.454Q0.525796 10.4163 0.443985 10.3616Q0.362175 10.307 0.2926 10.2374Q0.223026 10.1678 0.168362 10.086Q0.113698 10.0042 0.0760443 9.9133Q0.038391 9.8224 0.0191955 9.72589Q-6.13619e-17 9.62939 -5.29953e-17 9.531L-5.29953e-17 9.531Z" transform="matrix(1 0 0 1 -1.2505552E-12 -2.046363E-12)" id="Path-5" fill="#FFFFFF" fill-rule="evenodd" stroke="none" />
          <path d="M3.22599 0L0 0L0 1.62L3.22599 1.62L3.22599 0ZM3.22599 2.43L0 2.43L0 4.05L3.22599 4.05L3.22599 2.43Z" transform="translate(2.419492 4.86)" id="Combined-Shape" fill="#E4E8EE" fill-rule="evenodd" stroke="none" />
        </g>
      </g>
      <g id="Green-Check-Button" transform="translate(216.14128 -5.684342E-13)">
        <path d="M12.0975 24.3C18.7787 24.3 24.1949 18.8603 24.1949 12.15C24.1949 5.43974 18.7787 -1.84173e-13 12.0975 -1.84173e-13C5.41622 -1.84173e-13 -3.66753e-13 5.43974 -3.66753e-13 12.15C-3.66753e-13 18.8603 5.41622 24.3 12.0975 24.3Z" transform="matrix(1 0 0 1 -2.5011104E-12 -1.9326762E-12)" id="Oval-6" fill="#36BF7E" fill-rule="evenodd" stroke="none" />
        <path d="M-1.83376e-13 3.24L3.15267 5.67L8.06497 -1.84173e-13" transform="translate(8.064973 9.72)" id="Path-6" fill="none" fill-rule="evenodd" stroke="#FFFFFF" stroke-width="1.2" stroke-linecap="square" />
      </g>
      <g id="Blue-More-Button" transform="translate(288.72604 -5.684342E-13)">
        <path d="M12.0975 24.3C18.7787 24.3 24.1949 18.8603 24.1949 12.15C24.1949 5.43974 18.7787 -1.84173e-13 12.0975 -1.84173e-13C5.41622 -1.84173e-13 1.83376e-13 5.43974 1.83376e-13 12.15C1.83376e-13 18.8603 5.41622 24.3 12.0975 24.3Z" transform="matrix(1 0 0 1 -5.684342E-13 -2.046363E-12)" id="Oval-6" fill="#00A1E0" fill-rule="evenodd" stroke="none" />
        <path d="M3.22599 1.62C3.22599 2.5147 2.50383 3.24 1.61299 3.24C0.722162 3.24 0 2.5147 0 1.62C0 0.725299 0.722162 0 1.61299 0C2.50383 0 3.22599 0.725299 3.22599 1.62ZM8.87147 1.62C8.87147 2.5147 8.14931 3.24 7.25848 3.24C6.36764 3.24 5.64548 2.5147 5.64548 1.62C5.64548 0.725299 6.36764 0 7.25848 0C8.14931 0 8.87147 0.725299 8.87147 1.62ZM14.517 1.62C14.517 2.5147 13.7948 3.24 12.904 3.24C12.0131 3.24 11.291 2.5147 11.291 1.62C11.291 0.725299 12.0131 0 12.904 0C13.7948 0 14.517 0.725299 14.517 1.62Z" transform="translate(4.838984 11.34)" id="Combined-Shape" fill="#FFFFFF" fill-rule="evenodd" stroke="none" />
      </g>
    </g>
    <g id="Back-Arrow" transform="matrix(1 2.1830324E-09 -2.1830324E-09 1 110.28882 38.133057)">
      <path d="M5.05556 8L-6.41462e-16 4L5.05556 0" transform="translate(0.7222222 -1.1368684E-13)" id="Path-7" fill="none" fill-rule="evenodd" stroke="#00A1E0" stroke-width="2" stroke-linecap="square" />
    </g>
  </g>
</svg>