<?xml version="1.0" encoding="utf-8"?>
<svg width="51px" height="51px" viewbox="0 0 51 51" version="1.1" xmlns:xlink="http://www.w3.org/1999/xlink" xmlns="http://www.w3.org/2000/svg">
  <g id="speed">
    <path d="M13.8855 0.940301C13.7498 0.673968 13.4843 0.499196 13.1866 0.479711L6.04993 0.00381005C5.68011 -0.0326753 5.33822 0.196377 5.20331 0.540752L0.0584765 13.6892C-0.07981 14.0421 0.0330262 14.4434 0.33505 14.6732C0.486061 14.7885 0.667593 14.8463 0.848231 14.8463C1.02718 14.8463 1.20623 14.7903 1.35724 14.6767L5.62752 11.4744L8.11389 11.9715C8.51941 12.0521 8.92482 11.8298 9.07245 11.4422C10.4077 7.9447 12.0151 4.69243 13.8483 1.77688C14.0069 1.52387 14.0213 1.20574 13.8855 0.940301ZM7.74735 10.1679L5.58765 9.73616C5.35184 9.68954 5.10579 9.74551 4.91242 9.88966L2.72469 11.5302L6.55635 1.73761L11.6783 2.07861C10.2023 4.57691 8.88406 7.28965 7.74735 10.1679Z" transform="translate(2.2869873 18.902954)" id="Shape" fill="#D4C938" stroke="none" />
    <path d="M14.8434 7.93026L14.3675 0.792749C14.3471 0.494105 14.1723 0.228667 13.906 0.0928655C13.6404 -0.0428363 13.3223 -0.0293158 13.0696 0.130146C10.1531 1.96326 6.90167 3.57081 3.40424 4.90595C3.01742 5.05269 2.79343 5.4582 2.87495 5.86451L3.37203 8.35089L0.169768 12.6203C-0.0575949 12.924 -0.0567002 13.3413 0.173148 13.6434C0.336885 13.8588 0.588803 13.9784 0.848376 13.9784C0.951867 13.9784 1.05625 13.9589 1.15795 13.9215L14.3064 8.77668C14.6508 8.64198 14.8679 8.29919 14.8434 7.93026ZM3.31596 11.253L4.95651 9.06529C5.10076 8.87272 5.15673 8.62677 5.10921 8.39006L4.67745 6.23116C7.55652 5.09444 10.2685 3.7762 12.7667 2.30018L13.1086 7.42126L3.31596 11.253Z" transform="translate(17.150635 34.6344)" id="Shape" fill="#D4C938" stroke="none" />
    <path d="M13.7379 0L8.02212 0C7.71423 0 7.4309 0.167117 7.28068 0.436035L0.106679 13.3266C-0.0799235 13.6625 -0.0171925 14.0833 0.259381 14.3497C0.421427 14.5058 0.634275 14.5872 0.848117 14.5872C0.999129 14.5872 1.15094 14.5473 1.28664 14.4642L14.1772 6.6634C14.4308 6.50991 14.5861 6.23502 14.5861 5.93817L14.5861 0.84831C14.5862 0.380064 14.2061 0 13.7379 0ZM12.8897 5.46048L3.14371 11.3586L8.52019 1.69742L8.52019 1.69652L12.8897 1.69652L12.8897 5.46048Z" transform="translate(10.862427 25.450317)" id="Shape" fill="#D4C938" stroke="none" />
    <path d="M41.1393 0.805396C41.1045 0.392326 40.7772 0.0648519 40.364 0.0300565C40.0824 0.00798637 12.1475 -1.94224 0.0560129 29.7278C-0.0635836 30.0408 0.0118725 30.3936 0.24858 30.6304L4.28215 34.6639C4.47134 34.8531 4.73598 34.9396 5.00152 34.904C5.26537 34.8658 5.49611 34.7064 5.62505 34.4731L9.66628 27.1354L14.0333 27.1354L14.0333 30.9094L6.65152 35.5699C6.4335 35.7082 6.29014 35.9372 6.26131 36.1934C6.23248 36.4496 6.32235 36.7049 6.50478 36.8873L10.5384 40.9209C10.7004 41.083 10.9167 41.1695 11.1381 41.1695C11.2399 41.1695 11.3425 41.1517 11.4409 41.1135C43.1124 29.0211 41.1631 1.08624 41.1393 0.805396ZM36.6892 15.8558C33.7125 23.2205 26.9008 33.2329 11.3475 39.3313L8.45481 36.4386L15.3344 32.0953C15.5804 31.9393 15.7297 31.6686 15.7297 31.3777L15.7297 26.2879C15.7297 25.8197 15.3496 25.4396 14.8814 25.4396L9.16394 25.4396C8.85436 25.4396 8.57013 25.6084 8.42081 25.879L4.6824 32.667L1.83813 29.8218C12.4528 2.7429 35.0783 1.63502 39.4766 1.69695C39.508 3.67521 39.3265 9.32985 36.6892 15.8558Z" transform="translate(9.718872 0.01159668)" id="Shape" fill="#D4C938" stroke="none" />
    <path d="M14.5311 2.15224C14.347 1.90797 14.0535 1.78917 13.7659 1.81969C13.7957 1.53129 13.6769 1.23861 13.4334 1.05449C12.1542 0.0874809 10.5034 -0.234028 8.90274 0.171387C7.20363 0.603148 5.8141 1.76193 5.09136 3.35247L0.0763557 14.3862C-0.0703812 14.7085 -0.00168527 15.0877 0.248543 15.3371C0.41059 15.4999 0.627712 15.5856 0.848315 15.5856C0.967116 15.5856 1.08671 15.5602 1.19955 15.5093L12.2332 10.4934C13.8229 9.77152 14.9817 8.38199 15.4134 6.68288C15.8197 5.08389 15.4982 3.43231 14.5311 2.15224ZM13.7694 6.26554C13.4657 7.4625 12.6497 8.44055 11.5317 8.94955L2.55677 13.029L6.63617 4.05325C7.14428 2.93523 8.12322 2.11913 9.32018 1.81552C9.63493 1.73579 9.95127 1.69671 10.2634 1.69671C10.7919 1.69671 11.3085 1.80955 11.7793 2.02926L10.9718 3.45865C10.7843 3.7903 10.8411 4.20685 11.1108 4.47577C11.3806 4.74638 11.7971 4.80235 12.128 4.61485L13.5574 3.80641C13.9051 4.5546 13.984 5.41892 13.7694 6.26554Z" transform="translate(0 35.31421)" id="Shape" fill="#D4C938" stroke="none" />
    <path d="M18.7114 0.81784C18.6766 0.40477 18.3491 0.077296 17.9361 0.0425006C17.6052 0.0161556 9.74156 -0.579341 0.493562 3.6808C0.241643 3.79612 0.0625966 4.02855 0.0133861 4.30175C-0.0358244 4.57494 0.0524563 4.85479 0.248404 5.05074L13.7023 18.5046C13.8626 18.665 14.0789 18.7531 14.302 18.7531C14.352 18.7531 14.4021 18.7489 14.4522 18.7404C14.7253 18.6912 14.9569 18.5123 15.0731 18.2602C19.334 9.01224 18.7385 1.1478 18.7114 0.81784ZM14.0272 16.4288L2.32419 4.72585C9.09437 1.86796 15.023 1.67112 17.0496 1.70512C17.0835 3.73339 16.8926 9.64342 14.0272 16.4288Z" transform="translate(32.14685 0)" id="Shape" fill="#D4C938" stroke="none" />
    <path d="M12.4862 2.13961C9.63333 -0.713205 4.99243 -0.713205 2.13961 2.13961C-0.713205 4.99243 -0.713205 9.63333 2.13961 12.4862C3.56563 13.913 5.4395 14.6256 7.31249 14.6256C9.18636 14.6256 11.0593 13.9122 12.4862 12.4862C15.339 9.63333 15.339 4.99233 12.4862 2.13961ZM11.2867 11.2866C9.0956 13.4777 5.53027 13.4777 3.33916 11.2866C1.14805 9.0955 1.14805 5.53017 3.33916 3.33906C4.43432 2.2439 5.87385 1.69592 7.31258 1.69592C8.75132 1.69592 10.1909 2.2439 11.2868 3.33906C13.4778 5.53017 13.4778 9.0955 11.2867 11.2866Z" transform="translate(24.97754 11.296509)" id="Shape" fill="#D4C938" stroke="none" />
  </g>
</svg>