<?xml version="1.0" encoding="utf-8"?>
<svg width="100px" height="100px" viewbox="0 0 100 100" version="1.1" xmlns:xlink="http://www.w3.org/1999/xlink" xmlns="http://www.w3.org/2000/svg">
  <g id="twitter">
    <path d="M49.8832 0C77.4346 0 99.7668 22.3353 99.7668 49.8836C99.7668 77.4349 77.4346 99.7668 49.8832 99.7668C22.3318 99.7668 0 77.4346 0 49.8836C0 22.3353 22.3322 0 49.8832 0Z" id="Path" fill="#26A6D1" stroke="none" />
    <path d="M59.2521 5.52774C57.0729 6.46918 54.7281 7.10206 52.2685 7.38904C54.7815 5.92671 56.7082 3.61644 57.6154 0.857534C55.2647 2.2137 52.6644 3.19589 49.8928 3.7226C47.676 1.43116 44.5178 0 41.0199 0C34.3106 0 28.8671 5.27842 28.8671 11.7942C28.8671 12.7202 28.9733 13.6212 29.1819 14.4849C19.0805 13.9925 10.1202 9.29384 4.12808 2.15753C3.08048 3.90034 2.48185 5.92363 2.48185 8.08733C2.48185 12.1777 4.62671 15.7942 7.88801 17.9051C5.89281 17.8428 4.02192 17.3158 2.37911 16.4274L2.37911 16.5771C2.37911 22.2949 6.56918 27.062 12.1312 28.1469C11.1116 28.4151 10.039 28.5616 8.92911 28.5616C8.14657 28.5616 7.38596 28.4901 6.64384 28.3497C8.19007 33.0387 12.6798 36.4493 18.0017 36.5432C13.8397 39.7106 8.59863 41.5938 2.90274 41.5938C1.92055 41.5938 0.95411 41.5377 0 41.4288C5.38425 44.7771 11.7695 46.7318 18.6377 46.7318C40.9979 46.7318 53.2257 28.749 53.2257 13.1603L53.1914 11.6325C55.5606 9.97363 57.6216 7.89726 59.2521 5.52774Z" transform="translate(21.817871 28.078125)" id="Path" fill="#FFFFFF" stroke="none" />
  </g>
</svg>