<?xml version="1.0" encoding="utf-8"?>
<svg width="74px" height="30px" viewbox="0 0 74 30" version="1.1" xmlns:xlink="http://www.w3.org/1999/xlink" xmlns="http://www.w3.org/2000/svg">
  <g id="twitter" fill="#FFFFFF">
    <path d="M29.3931 9.12234Q29.8731 9.55434 30.6171 9.55434Q31.3611 9.55434 31.8411 9.12234Q32.3211 8.69034 32.3211 7.99434Q32.3211 7.29835 31.8411 6.85434Q31.3611 6.41035 30.6171 6.41034Q29.8731 6.41035 29.3931 6.85434Q28.9131 7.29834 28.9131 7.99434Q28.9131 8.69034 29.3931 9.12234ZM5.904 23.6903Q4.872 23.6903 4.164 23.3783Q3.456 23.0663 3.012 22.5023Q2.568 21.9383 2.364 21.1583Q2.16 20.3783 2.16 19.4183L2.16 13.8023L0.48 13.8023L0.48 11.7383L2.304 11.6183L2.64 8.40234L4.944 8.40234L4.944 11.6183L7.944 11.6183L7.944 13.8023L4.944 13.8023L4.944 19.4183Q4.944 21.4823 6.6 21.4823Q6.912 21.4823 7.236 21.4103Q7.56 21.3383 7.824 21.2183L8.304 23.2583Q7.824 23.4263 7.212 23.5583Q6.6 23.6903 5.904 23.6903ZM40.0937 23.6903Q39.0617 23.6903 38.3537 23.3783Q37.6457 23.0663 37.2017 22.5023Q36.7577 21.9383 36.5537 21.1583Q36.3497 20.3783 36.3497 19.4183L36.3497 13.8023L34.6697 13.8023L34.6697 11.7383L36.4937 11.6183L36.8297 8.40234L39.1337 8.40234L39.1337 11.6183L42.1337 11.6183L42.1337 13.8023L39.1337 13.8023L39.1337 19.4183Q39.1337 21.4823 40.7897 21.4823Q41.1017 21.4823 41.4257 21.4103Q41.7497 21.3383 42.0137 21.2183L42.4937 23.2583Q42.0137 23.4263 41.4017 23.5583Q40.7897 23.6903 40.0937 23.6903ZM47.4463 23.3783Q48.1543 23.6903 49.1863 23.6903Q49.8823 23.6903 50.4943 23.5583Q51.1063 23.4263 51.5863 23.2583L51.1063 21.2183Q50.8423 21.3383 50.5183 21.4103Q50.1943 21.4823 49.8823 21.4823Q48.2263 21.4823 48.2263 19.4183L48.2263 13.8023L51.2263 13.8023L51.2263 11.6183L48.2263 11.6183L48.2263 8.40234L45.9223 8.40234L45.5863 11.6183L43.7623 11.7383L43.7623 13.8023L45.4423 13.8023L45.4423 19.4183Q45.4423 20.3783 45.6463 21.1583Q45.8503 21.9383 46.2943 22.5023Q46.7383 23.0663 47.4463 23.3783ZM59.1669 23.6903Q57.9429 23.6903 56.8869 23.2703Q55.8309 22.8503 55.0389 22.0583Q54.2469 21.2663 53.8029 20.1263Q53.3589 18.9863 53.3589 17.5223Q53.3589 16.0823 53.8149 14.9303Q54.2709 13.7783 55.0269 12.9863Q55.7829 12.1943 56.7669 11.7623Q57.7509 11.3303 58.7829 11.3303Q59.9829 11.3303 60.8949 11.7383Q61.8069 12.1463 62.4189 12.8903Q63.0309 13.6343 63.3429 14.6663Q63.6549 15.6983 63.6549 16.9223Q63.6549 17.3303 63.6189 17.6903Q63.5829 18.0503 63.5349 18.2663L56.0469 18.2663Q56.2389 19.8503 57.1629 20.7023Q58.0869 21.5543 59.5269 21.5543Q60.2949 21.5543 60.9549 21.3263Q61.6149 21.0983 62.2629 20.6903L63.1989 22.4183Q62.3589 22.9703 61.3269 23.3303Q60.2949 23.6903 59.1669 23.6903ZM66.7234 11.6183L66.7234 23.4023L69.4834 23.4023L69.4834 16.2023Q70.0354 14.8583 70.8034 14.3183Q71.5714 13.7783 72.2674 13.7783Q72.6514 13.7783 72.9154 13.8263Q73.1794 13.8743 73.4914 13.9703L73.9714 11.5703Q73.4674 11.3303 72.6274 11.3303Q71.6914 11.3303 70.8034 11.9423Q69.9154 12.5543 69.2914 13.7063L69.1954 13.7063L69.0034 11.6183L66.7234 11.6183ZM12.7886 23.4023L9.66857 11.6183L12.4526 11.6183L13.8686 17.7383Q14.0606 18.5783 14.1926 19.4183Q14.3246 20.2583 14.4926 21.1223L14.5886 21.1223Q14.7566 20.2583 14.9366 19.4183Q15.1166 18.5783 15.3326 17.7383L16.8686 11.6183L19.3886 11.6183L20.9486 17.7383Q21.1646 18.5783 21.3566 19.4183Q21.5486 20.2583 21.7406 21.1223L21.8366 21.1223Q22.0046 20.2583 22.1486 19.4183Q22.2926 18.5783 22.4606 17.7383L23.8766 11.6183L26.4686 11.6183L23.4686 23.4023L20.1806 23.4023L18.8126 17.9063Q18.6206 17.0663 18.4526 16.2383Q18.2846 15.4103 18.0926 14.4743L17.9966 14.4743Q17.8286 15.4103 17.6606 16.2503Q17.4926 17.0903 17.3006 17.9303L15.9566 23.4023L12.7886 23.4023ZM29.2251 11.6183L29.2251 23.4023L31.9851 23.4023L31.9851 11.6183L29.2251 11.6183ZM56.0229 16.3943L61.2549 16.3943Q61.2549 15.0263 60.6669 14.2463Q60.0789 13.4663 58.8549 13.4663Q57.7989 13.4663 57.0069 14.2103Q56.2149 14.9543 56.0229 16.3943Z" />
  </g>
</svg>