<?xml version="1.0" encoding="utf-8"?>
<svg width="143px" height="100px" viewbox="0 0 143 100" version="1.1" xmlns:xlink="http://www.w3.org/1999/xlink" xmlns="http://www.w3.org/2000/svg">
  <g id="youtube">
    <path d="M139.681 15.625C138.036 9.51536 133.219 4.69947 127.111 3.05427C115.95 0 71.3081 0 71.3081 0C71.3081 0 26.667 0 15.5064 2.93785C9.51536 4.58195 4.58087 9.51645 2.93676 15.625C0 26.7845 0 49.9282 0 49.9282C0 49.9282 0 73.1883 2.93676 84.2314C4.58196 90.3399 9.39785 95.1569 15.5075 96.8021C26.7845 99.8564 71.3092 99.8564 71.3092 99.8564C71.3092 99.8564 115.95 99.8564 127.111 96.9185C133.221 95.2744 138.036 90.4574 139.682 84.3489C142.618 73.1883 142.618 50.0457 142.618 50.0457C142.618 50.0457 142.736 26.7845 139.681 15.625Z" id="Path" fill="#FF0000" stroke="none" />
    <path d="M0 42.762L37.1224 21.381L7.91691e-15 0L0 42.762Z" transform="translate(57.09424 28.54712)" id="Path" fill="#FFFFFF" stroke="none" />
  </g>
</svg>